/* XPM */
static char *char2[] = {
/* columns rows colors chars-per-pixel */
"64 64 40 1 ",
"  c #181818",
". c #191818",
"X c #46342B",
"o c #46342C",
"O c #47342C",
"+ c #47352C",
"@ c #48362D",
"# c #48372D",
"$ c #49372D",
"% c #49372E",
"& c #4B392F",
"* c #4B3A2F",
"= c #493830",
"- c #4E3C31",
"; c #4F3E32",
": c #503F32",
"> c #503F33",
", c #514033",
"< c #524034",
"1 c #564536",
"2 c #564537",
"3 c #594839",
"4 c #5A4939",
"5 c #5A4A3A",
"6 c #5D4C3C",
"7 c #5E4D3C",
"8 c #5E4E3D",
"9 c #635240",
"0 c #635340",
"q c #645441",
"w c #685743",
"e c #695944",
"r c #6A5945",
"t c #6A5A45",
"y c #6F5E48",
"u c #71604A",
"i c #885038",
"p c #D08860",
"a c #F8D098",
"s c #F8F0E0",
/* pixels */
"++++++++++++++++++++++++++++++++++++++++++++++++++++++++++++++++",
"++++++++++++++++++++++++++++++++++++++++++++++++++++++++++++++++",
"++++++++++++++++++++++++++++++++++++++++++++++++++++++++++++++++",
"++++++++++++++++++++++++++++++++++++++++++++++++++++++++++++++++",
"++++++++++++++++++++++++++++++++++++++++++++++++++++++++++++++++",
"++++++++++++++++++++++++++++++++++++++++++++++++++++++++++++++++",
"++++++++++++++++++++++++++++++++++++++++++++++++++++++++++++++++",
"++++++++++++++++++++++++++++++++XXXX++++++++++++++++++++++++++++",
"++++++++++++++++++++++++++++@X@XXXXX++++++++++++++++++++++++++++",
"++++++++++++++++++++++++++++X@XX@@@&+X++++++++++++++++++++++++++",
"++++++++++++++++++++++++++++@X&&*;;;*&+X++++++++++++++++++++++++",
"+++++++++++++++++++++++++++XX&&:1332,*@X++++++++++++++++++++++++",
"+++++++++++++++++++++++++++XX+;28q082;&XX+++++++++++++++++++++++",
"+++++++++++++++++++++++++++XX&;40ee04:@XX+++++++++++++++++++++++",
"+++++++++++++++++++++++++++XX@;40ee04;@XX+++++++++++++++++++++++",
"+++++++++++++++++++++++++++XX+;280082-@XX+++++++++++++++++++++++",
"+++++++++++++++++++++++++++++@&,2442:*@@OX@X@X@X++++++++++++++++",
"++++++++++++++++++++++++++++=iippii--@XX@@X@X@X@++++++++++++++++",
"++++++++++++++++++++++++++++paaaaapi@XX@X@@X@X@X++++++++++++++++",
"+++++++++++++++++++++++++++paaaaaaapi@@X@XX@X@X@++++++++++++++++",
"+++++++++++++++++++++++++++paaaaaaapi@X@X@X@@X@X++++++++++++++++",
"+++++++++++++++++++++++++++iaaaaaaapiX@X@X@XX@X@++++++++++++++++",
"++++++++++++++++++++++++++piaaaaaaapiiX@@XX@@XX@++++++++++++++++",
"++++++++++++++++++++++++++aipaaaaappip@XXXXXXXXX++++++++++++++++",
"++++++++++++++++++++++++++aipiippiipipX@OXXOOXXO++++++++++++++++",
"++++++++++++++++++++++++++p is pp si iX@@@@@@@@@@+++++++++++++++",
"+++++++++++++++++++++++++++ is aa si +@*-:>><,::*@++++++++++++++",
"++++++++++++++++++++++++++++ paaapp ++-:34788741:*@+O+++++++++++",
"+++++++++++++++++++++++++++ii paap ii@-27qwrtwq72-@XX+++++++++++",
"++++++++++++++++++++++++++ipppiiiipppi;39tyuuyt93:@XX+++++++++++",
"++++++++++++++++++++++++++ipppaaaapppi;39tyuuyt91:@+X+++++++++++",
"+++++++++++++++++++++++++ipapiaaaaipapi27qwttwq81:+XX+++++++++++",
"X@X@X@X@@X@X@X@X+++++++++iaap aaaa paai:14688842:*@@O+++++++++++",
"@X@X@X@XX@X@X@X@+++++++++iaai paap iaai&::>>>>:-*@++++++++++++++",
"X@X@X@X@@X@X@X@X+++++++++ippi paap ippi@@@@@&@@@@+++++++++++++++",
"@X@X@X@XX@X@X@X@+++++++++ aaiiippiiiaa XXX+XOO+O++++++++++++++++",
"X@X@X@X@@X@X@X@X+++++++++ apiiiiiiiipa @XXXXXXXXO+++++++++++++++",
"@X@X@X@XX@X@X@X@+++++++++ pi ippiii ip X++++++++++++++++++++++++",
"X@X@X@X@X@@X@XX@++++++++++   ippipi   @X++++++++++++++++++++++++",
"@X@X@X@OXXXXXXXXO+++++++++++ipapipp +@X@++++++++++++++++++++++++",
"X@X@X@X@OOOOOX+X++++++++++++iaapipp ++++++++++++++++++++++++++++",
"@X@X@XX@@@@@@+@@@++++++++++ipaapipp ++++++++++++++++++++++++++++",
"X@X@OX@*::>><,::*&O++++++++ippppipap +++++++++++++++++++++++++++",
"@X@X+@-:14788741:*@OO+++++ipaappiaaap ++++++++++++++++++++++++++",
"+++XX@;27qwrteq71-+XO++++ paaai       ++++++++++++++++++++++++++",
"+++XX@;39tyuuyt93,++X++++       ++++++++++++++++++++++++++++++++",
"+++X+@;39tyuuyt93:@+X+++++++++++++++++++++++++++++++++++++++++++",
"+++++@*27qwttwq71*+XX+++++++++++++++++++++++++++++++++++++++++++",
"+++O++*:14788842:*@+++++++++++++++++++++++++++++++++++++++++++++",
"++++++@*:,,<:<:-*@++++++++++++++++++++++++++++++++++++++++++++++",
"++++++++@@@@@@@@++++++++++++++++++++++++++++++++++++++++++++++++",
"++++++++XX+O+XX@+++++++++++++++++++++++++++++++++++OXXXXO+++++++",
"+++++++OXXXXXXXXO++++++++++++++++++++++++++++++++++++XOX++++++++",
"+++++++++++++++++++++++++++++++++++++++++++++++++++@@@*@++++++++",
"++++++++++++++++++++++++++++++++++++++++++++++++++@*::;**@++++++",
"+++++++++++++++++++++++++++++++++++++++++++++++++@*,2332<*++O+++",
"+++++++++++++++++++++++++++++++++++++++++++++++XX&*280081:@+++++",
"+++++++++++++++++++++++++++++++++++++++++++++++XX@:30ee03:+XX+++",
"+++++++++++++++++++++++++++++++++++++++++++++++XX+;30ee03;+XX+++",
"++++++++++++++++++++++++++++++++++++++++++++++++X&;280071:@+X+++",
"++++++++++++++++++++++++++++++++++++++++++++++++X+*,1442<*++++++",
"++++++++++++++++++++++++++++++++++++++++++++++++++&**,,;*+++++++",
"++++++++++++++++++++++++++++++++++++++++++++++++++X++$$$++++++++",
"++++++++++++++++++++++++++++++++++++++++++++++++++++XX++++++++++"
};
