/* XPM */
static char *char_down[] = {
/* columns rows colors chars-per-pixel */
"64 64 38 1 ",
"  c #181818",
". c #46342B",
"X c #46342C",
"o c #47342C",
"O c #47352C",
"+ c #48362D",
"@ c #48372D",
"# c #49372D",
"$ c #49372E",
"% c #4B392F",
"& c #4B3A2F",
"* c #4E3C31",
"= c #4F3E32",
"- c #503F32",
"; c #503F33",
": c #514033",
"> c #524034",
", c #564536",
"< c #564537",
"1 c #594839",
"2 c #5A4939",
"3 c #5A4A3A",
"4 c #5D4C3C",
"5 c #5E4D3C",
"6 c #5E4E3D",
"7 c #635240",
"8 c #635340",
"9 c #645441",
"0 c #685743",
"q c #695944",
"w c #6A5945",
"e c #6A5A45",
"r c #6F5E48",
"t c #71604A",
"y c #885038",
"u c #D08860",
"i c #F8D098",
"p c #F8F0E0",
/* pixels */
"OOOOOOOOOOOOOOOOOOOOOOOOOOOOOOOOOOOOOOOOOOOOOOOOOOOOOOOOOOOOOOOO",
"OOOOOOOOOOOOOOOOOOOOOOOOOOOOOOOOOOOOOOOOOOOOOOOOOOOOOOOOOOOOOOOO",
"OOOOOOOOOOOOOOOOOOOOOOOOOOOOOOOOOOOOOOOOOOOOOOOOOOOOOOOOOOOOOOOO",
"OOOOOOOOOOOOOOOOOOOOOOOOOOOOOOOOOOOOOOOOOOOOOOOOOOOOOOOOOOOOOOOO",
"OOOOOOOOOOOOOOOOOOOOOOOOOOOOOOOOOOOOOOOOOOOOOOOOOOOOOOOOOOOOOOOO",
"OOOOOOOOOOOOOOOOOOOOOOOOOOOOOOOOOOOOOOOOOOOOOOOOOOOOOOOOOOOOOOOO",
"OOOOOOOOOOOOOOOOOOOOOOOOOOOOOOOOOOOOOOOOOOOOOOOOOOOOOOOOOOOOOOOO",
"OOOOOOOOOOOOOOOOOOOOOOOOOOOOOOOO....OOOOOOOOOOOOOOOOOOOOOOOOOOOO",
"OOOOOOOOOOOOOOOOOOOOOOOOOOOO+.+.....OOOOOOOOOOOOOOOOOOOOOOOOOOOO",
"OOOOOOOOOOOOOOOOOOOOOOOOOOOO.+..+++%O.OOOOOOOOOOOOOOOOOOOOOOOOOO",
"OOOOOOOOOOOOOOOOOOOOOOOOOOOO+.%%&===&%O.OOOOOOOOOOOOOOOOOOOOOOOO",
"OOOOOOOOOOOOOOOOOOOOOOOOOOO..%%-,11<:&+.OOOOOOOOOOOOOOOOOOOOOOOO",
"OOOOOOOOOOOOOOOOOOOOOOOOOOO..O=<6986<=%..OOOOOOOOOOOOOOOOOOOOOOO",
"OOOOOOOOOOOOOOOOOOOOOOOOOOO..%=28qq82-+..OOOOOOOOOOOOOOOOOOOOOOO",
"OOOOOOOOOOOOOOOOOOOOOOOOOOO..+=28qq82=+..OOOOOOOOOOOOOOOOOOOOOOO",
"OOOOOOOOOOOOOOOOOOOOOOOOOOO..+*<6886<*+..OOOOOOOOOOOOOOOOOOOOOOO",
"OOOOOOOOOOOOOOOOOOOOOOOOOOOOOuuuuyy<-&+.o.+.+.+.OOOOOOOOOOOOOOOO",
"OOOOOOOOOOOOOOOOOOOOOOOOOOOOuuiiiiuy&+++++.+.+.+OOOOOOOOOOOOOOOO",
"OOOOOOOOOOOOOOOOOOOOOOOOOOOuuiiiiiiuy++..++.+.+.OOOOOOOOOOOOOOOO",
"OOOOOOOOOOOOOOOOOOOOOOOOOOOuuiiiiiiuyO.++..+.+.+OOOOOOOOOOOOOOOO",
"OOOOOOOOOOOOOOOOOOOOOOOOOOOyuiiiiiiuy.+..+.++.+.OOOOOOOOOOOOOOOO",
"OOOOOOOOOOOOOOOOOOOOOOOOOOyyuuiiiiiuyu.++.+..+.+OOOOOOOOOOOOOOOO",
"OOOOOOOOOOOOOOOOOOOOOOOOOOuyyuuiiiuuuu.++..++..+OOOOOOOOOOOOOOOO",
"OOOOOOOOOOOOOOOOOOOOOOOOOOu yyyuuyyuuu+.........OOOOOOOOOOOOOOOO",
"OOOOOOOOOOOOOOOOOOOOOOOOOOy yp uu pyuyOOo..oo..oOOOOOOOOOOOOOOOO",
"OOOOOOOOOOOOOOOOOOOOOOOOOOO  p iu pyyOO++++++++++OOOOOOOOOOOOOOO",
"OOOOOOOOOOOOOOOOOOOOOOOOOOOO uiiiuuyo++&*-;;>:--&+OOOOOOOOOOOOOO",
"OOOOOOOOOOOOOOOOOOOOOOOOOOOOy uiiuyyy+&-1256652,-&+OoOOOOOOOOOOO",
"OOOOOOOOOOOOOOOOOOOOOOOOOOOyuy yy uiiy*<590we095<*+..OOOOOOOOOOO",
"OOOOOOOOOOOOOOOOOOOOOOOOOOOuuyuuuyuiiy-17erttre71-+..OOOOOOOOOOO",
"OOOOOOOOOOOOOOOOOOOOOOOOOOyuuyiiiuyuiiy17erttre7,-+O.OOOOOOOOOOO",
"OOOOOOOOOOOOOOOOOOOOOOOOO yuy iiiu yiiy,590ee096,-O..OOOOOOOOOOO",
"OOOOOOOOOOOOOOOOOOOOOOOOO yyy uiiy uui -,246662<-&++oOOOOOOOOOOO",
"OOOOOOOOOOOOOOOOOOOOOOOOO yy  yuu iiuy +--;;;;-*&+OOOOOOOOOOOOOO",
"OOOOOOOOOOOOOOOOOOOOOOOOOO   yyyy iii ++++++%++++OOOOOOOOOOOOOOO",
"OOOOOOOOOOOOOOOOOOOOOOOOOOOO yuuy iii O+..O.ooOoOOOOOOOOOOOOOOOO",
"OOOOOOOOOOOOOOOOOOOOOOOOOOOOyuuuyuy  OOo........oOOOOOOOOOOOOOOO",
"OOOOOOOOOOOOOOOOOOOOOOOOOOOyuiiuyuuy OOOOOOOOOOOOOOOOOOOOOOOOOOO",
"OOOOOOOOOOOOOOOOOOOOOOOOOOO uiiuyuuy OOOOOOOOOOOOOOOOOOOOOOOOOOO",
"OOOOOOOo........oOOOOOOOOOO uiuy yyy OOOOOOOOOOOOOOOOOOOOOOOOOOO",
"OOOOOOOOo..oo..oOOOOOOOOOOOO uuu yy OOOOOOOOOOOOOOOOOOOOOOOOOOOO",
"OOOOOOO++++++++++OOOOOOOOOOOyuuu   OOOOOOOOOOOOOOOOOOOOOOOOOOOOO",
"OOOOOO+%*-;;,>-*%OOOOOOOOOOyuiiu OOOOOOOOOOOOOOOOOOOOOOOOOOOOOOO",
"OOOoOO*-12554221-*OOOOOOOOOyiiiy OOOOOOOOOOOOOOOOOOOOOOOOOOOOOOO",
"OOO..+=<29qwq095<=+.oOOOOOOyyy  OOOOOOOOOOOOOOOOOOOOOOOOOOOOOOOO",
"OOO..+=19etttrq8<=%..OOOOOOOOOOOOOOOOOOOOOOOOOOOOOOOOOOOOOOOOOOO",
"OO...%=19ettttq82=+O.OOOOOOOOOOOOOOOOOOOOOOOOOOOOOOOOOOOOOOOOOOO",
"OO...+&<290qq085<=O..OOOOOOOOOOOOOOOOOOOOOOOOOOOOOOOOOOOOOOOOOOO",
"OOOOO+&-,266662<-*OOOOOOOOOOOOOOOOOOOOOOOOOOOOOOOOOOOOOOOOOOOOOO",
"OOOOOO+&-->>->-*&+OOOOOOOOOOOOOOOOOOOOOOOOOOOOOOOOOOOOOOOOOOOOOO",
"OOOOOOO++++++++++OOOOOOOOOOOOOOOOOOOOOOOOOOOOOOOOOOOOOOOOOOOOOOO",
"OOOOOOOOoo..O..OOOOOOOOOOOOOOOOOOOOOOOOOOOOOOOOOOOOo....oOOOOOOO",
"OOOOOOOO........OOOOOOOOOOOOOOOOOOOOOOOOOOOOOOOOOOOOO.O.OOOOOOOO",
"OOOOOOOOOOOOOOOOOOOOOOOOOOOOOOOOOOOOOOOOOOOOOOOOOOO++++++OOOOOOO",
"OOOOOOOOOOOOOOOOOOOOOOOOOOOOOOOOOOOOOOOOOOOOOOOOOO+&----&+OOOOOO",
"OOOOOOOOOOOOOOOOOOOOOOOOOOOOOOOOOOOOOOOOOOOOOOOOO+&:<1,,:&+OoOOO",
"OOOOOOOOOOOOOOOOOOOOOOOOOOOOOOOOOOOOOOOOOOOOOOO..+*<6886,-+O.OOO",
"OOOOOOOOOOOOOOOOOOOOOOOOOOOOOOOOOOOOOOOOOOOOOOO..+=28qq71-+..OOO",
"OOOOOOOOOOOOOOOOOOOOOOOOOOOOOOOOOOOOOOOOOOOOOOO..+=28qq71-+..OOO",
"OOOOOOOOOOOOOOOOOOOOOOOOOOOOOOOOOOOOOOOOOOOOOOO..%=<6876<*+..OOO",
"OOOOOOOOOOOOOOOOOOOOOOOOOOOOOOOOOOOOOOOOOOOOOOOO.%%:,22<:&+OOOOO",
"OOOOOOOOOOOOOOOOOOOOOOOOOOOOOOOOOOOOOOOOOOOOOOOO..#%&---&+OOOOOO",
"OOOOOOOOOOOOOOOOOOOOOOOOOOOOOOOOOOOOOOOOOOOOOOOOO..%O#%O+OOOOOOO",
"OOOOOOOOOOOOOOOOOOOOOOOOOOOOOOOOOOOOOOOOOOOOOOOOO......OOOOOOOOO"
};
