/* XPM */
static char *enemy[] = {
/* columns rows colors chars-per-pixel */
"64 64 149 2 ",
"   c black",
".  c #010000",
"X  c #010100",
"o  c #010101",
"O  c #020101",
"+  c #030201",
"@  c #040202",
"#  c #050302",
"$  c #060302",
"%  c #060402",
"&  c #070403",
"*  c #090504",
"=  c #0A0604",
"-  c #0B0604",
";  c #0B0605",
":  c #0B0705",
">  c #0D0905",
",  c #0D0806",
"<  c #0E0806",
"1  c #0E0906",
"2  c #0F0906",
"3  c #0F0907",
"4  c #100A07",
"5  c #110A07",
"6  c #120B08",
"7  c #110D08",
"8  c #130D09",
"9  c #140D09",
"0  c #150D0A",
"q  c #150E0A",
"w  c #160E0A",
"e  c #160F0B",
"r  c #170F0B",
"t  c #18100C",
"y  c #18110C",
"u  c #19110D",
"i  c #1A110D",
"p  c #1A120D",
"a  c #1B120E",
"s  c #1C130E",
"d  c #1D140F",
"f  c #1E1410",
"g  c #1E1510",
"h  c #1F1511",
"j  c #1E1710",
"k  c #1F1611",
"l  c #201611",
"z  c #201612",
"x  c #211712",
"c  c #221813",
"v  c #231913",
"b  c #231914",
"n  c #241914",
"m  c #241A14",
"M  c #241A15",
"N  c #251A15",
"B  c #261B15",
"V  c #261B16",
"C  c #271C16",
"Z  c #281C17",
"A  c #281D17",
"S  c #291E18",
"D  c #2A1E18",
"F  c #2C1F19",
"G  c #2C201A",
"H  c #2D201A",
"J  c #2C211A",
"K  c #2D211B",
"L  c #2E211B",
"P  c #2E241B",
"I  c #2F221C",
"U  c #30231C",
"Y  c #31231D",
"T  c #31241D",
"R  c #32241D",
"E  c #33251E",
"W  c #33261F",
"Q  c #34251F",
"!  c #34261F",
"~  c #30281D",
"^  c #352720",
"/  c #362720",
"(  c #362820",
")  c #362821",
"_  c #372821",
"`  c #372921",
"'  c #382922",
"]  c #382A22",
"[  c #392A22",
"{  c #392A23",
"}  c #392B23",
"|  c #3B2B23",
" . c #392C23",
".. c #392F23",
"X. c #3B2C24",
"o. c #3D2D25",
"O. c #3E2E26",
"+. c #3F2F26",
"@. c #3F2F27",
"#. c #402F27",
"$. c #403027",
"%. c #413028",
"&. c #413128",
"*. c #423128",
"=. c #423129",
"-. c #423229",
";. c #433229",
":. c #43322A",
">. c #44322A",
",. c #44332A",
"<. c #45332A",
"1. c #45332B",
"2. c #45342B",
"3. c #46342B",
"4. c #47342C",
"5. c #46352C",
"6. c #47352C",
"7. c #47362C",
"8. c #48362D",
"9. c #48372D",
"0. c #49372D",
"q. c #44382B",
"w. c #4B392F",
"e. c #4B3A2F",
"r. c #4D3B30",
"t. c #4C3C30",
"y. c #4E3C31",
"u. c #4F3F32",
"i. c #503F32",
"p. c #503F33",
"a. c #4F4132",
"s. c #504033",
"d. c #514033",
"f. c #524034",
"g. c #564537",
"h. c #594839",
"j. c #5A4939",
"k. c #5A4A3A",
"l. c #5D4C3C",
"z. c #5E4D3C",
"x. c #5E4E3D",
"c. c #635240",
"v. c #635340",
"b. c #645441",
"n. c #685743",
"m. c #695944",
"M. c #6A5A45",
"N. c #6F5E48",
"B. c #71604A",
/* pixels */
"6.6.6.6.6.6.6.6.6.6.6.6.6.6.6.6.6.6.6.6.6.6.6.6.6.6.6.6.6.6.6.6.6.6.6.6.6.6.6.6.6.6.6.6.6.6.6.6.6.6.6.6.6.6.6.6.6.6.6.6.6.6.6.6.",
"6.6.6.6.6.6.6.6.6.6.6.6.6.6.6.6.6.6.6.6.6.6.6.6.6.6.6.6.6.6.6.6.6.6.6.6.6.6.6.6.6.6.6.6.6.6.6.6.6.6.6.6.6.6.6.6.6.6.6.6.6.6.6.6.",
"6.6.6.6.6.6.6.6.6.6.6.6.6.6.6.6.6.6.6.6.6.6.6.6.6.6.6.6.6.6.6.6.6.6.6.6.6.6.6.6.6.6.6.6.6.6.6.6.6.6.6.6.6.6.6.6.6.6.6.6.6.6.6.6.",
"6.6.6.6.6.6.6.6.6.6.6.6.6.6.6.6.6.6.6.6.6.6.6.6.6.6.6.6.6.6.6.6.6.6.6.6.6.6.6.6.6.6.6.6.6.6.6.6.6.6.6.6.6.6.6.6.6.6.6.6.6.6.6.6.",
"6.6.6.6.6.6.6.6.6.6.6.6.6.6.6.6.6.6.6.6.6.6.6.6.6.6.6.6.6.6.6.6.6.6.6.6.6.6.6.6.6.6.6.6.6.6.6.6.6.6.6.6.6.6.6.6.6.6.6.6.6.6.6.6.",
"6.6.6.6.6.6.6.6.6.6.6.6.6.6.6.6.6.6.6.6.6.6.6.6.6.6.6.6.6.6.6.6.6.6.6.6.6.6.6.6.6.6.6.6.6.6.6.6.6.6.6.6.6.6.6.6.6.6.6.6.6.6.6.6.",
"6.6.6.6.6.6.6.6.6.6.6.6.6.6.6.6.6.6.6.6.6.6.6.6.6.6.6.6.6.6.6.6.6.6.6.6.6.6.6.6.6.6.6.6.6.6.6.6.6.6.6.6.6.6.6.6.6.6.6.6.6.6.6.6.",
"6.6.6.6.6.6.6.6.6.6.6.6.6.6.6.6.6.6.6.6.6.6.6.6.6.6.6.6.6.6.6.6.3.3.3.3.6.6.6.6.6.6.6.6.6.6.6.6.6.6.6.6.6.6.6.6.6.6.6.6.6.6.6.6.",
"6.6.6.6.6.6.6.6.6.6.6.6.6.6.6.6.6.6.6.6.6.6.6.6.6.6.6.6.3.6.3.3.3.3.3.3.3.6.6.6.6.6.6.6.6.6.6.6.6.6.6.6.6.6.6.6.6.6.6.6.6.6.6.6.",
"6.6.6.6.6.6.6.6.6.6.6.6.6.6.6.6.6.6.6.6.6.6.6.6.6.6.6.6.8.3.3.w.8.w.w.6.9.3.6.6.6.6.6.6.6.6.6.6.6.6.6.6.6.6.6.6.6.6.6.6.6.6.6.6.",
"6.6.6.6.6.6.6.6.6.6.6.6.6.6.6.6.6.6.6.6.6.6.6.6.6.6.6.6.3.8.w.w.y.y.y.y.w.9.3.3.6.6.6.6.6.6.6.6.6.6.6.6.6.6.6.6.6.6.6.6.6.6.6.6.",
"6.6.6.6.6.6.6.6.6.6.6.6.6.6.6.6.6.6.6.6.6.6.6.6.6.6.3.3.3.w.w.d.g.j.j.g.d.w.w.3.6.6.6.6.6.6.6.6.6.6.6.6.6.6.6.6.6.6.6.6.6.6.6.6.",
"6.6.6.6.6.6.6.6.6.6.6.6.6.6.6.6.6.6.6.6.6.6.6.6.6.6.6.3.3.6.y.g.x.v.v.x.g.y.9.3.3.6.6.6.6.6.6.6.6.6.6.6.6.6.6.6.6.6.6.6.6.6.6.6.",
"6.6.6.6.6.6.6.6.6.6.6.6.6.6.6.6.6.6.6.6.6.6.6.6.6.6.6.3.3.8.y.j.v.m.m.v.j.d.6.3.3.6.6.6.6.6.6.6.6.6.6.6.6.6.6.6.6.6.6.6.6.6.6.6.",
"6.6.6.6.6.6.6.6.6.6.6.6.6.6.6.6.6.6.6.6.6.6.6.6.6.6.6.3.3.w.i.j.v.m.m.v.j.y.w.3.3.6.6.6.6.6.6.6.6.6.6.6.6.6.6.6.6.6.6.6.6.6.6.6.",
"6.6.6.6.6.6.6.6.6.6.6.6.6.6.6.6.6.6.6.6.6.6.6.6.6.6.6.3.3.8.y.g.x.v.v.x.g.y.w.3.3.6.6.6.6.6.6.6.6.6.6.6.6.6.6.6.6.6.6.6.6.6.6.6.",
"6.6.6.6.6.6.6.6.6.6.6.6.6.6.6.6.6.6.6.6.3.#.H 5 O O O O O O r  .a.j.j.g.y.y.6.6.6.6.6.6.6.6.6.6.6.6.6.6.6.6.6.6.6.6.6.6.6.6.6.6.",
"6.6.6.6.6.6.6.6.6.6.6.6.6.6.6.6.6.6.6.6.#.[ Z , O O O O O O q I :.t.r.y.t.6.6.6.6.6.6.6.6.6.6.6.6.6.6.6.6.6.6.6.6.6.6.6.6.6.6.6.",
"6.6.6.6.6.6.6.6.6.6.6.6.6.6.6.6.6.6.6.6.H Z a & O O O O O O * d G [ 6.6.6.6.6.6.6.6.6.6.6.6.6.6.6.6.6.6.6.6.6.6.6.6.6.6.6.6.6.6.",
"6.6.6.6.6.6.6.6.6.6.6.6.6.6.6.6.6.6.6.6., , & O O O O O O O O & q S [ :.:.<.3.6.6.6.6.6.6.6.6.6.6.6.6.6.6.6.6.6.6.6.6.6.6.6.6.6.",
"6.6.6.6.6.6.6.6.6.6.6.6.6.6.6.6.6.6.6.6.O O O O O O O O O O O O @ s F E E / O.3.6.6.6.6.6.6.6.6.6.6.6.6.6.6.6.6.6.6.6.6.6.6.6.6.",
"6.6.6.6.6.6.6.6.6.6.6.6.6.6.6.6.6.6.6.6.O O O O O O O O O O O O O - 8 a a M / :.3.6.6.6.6.6.6.6.6.6.6.6.6.6.6.6.6.6.6.6.6.6.6.6.",
"6.6.6.6.6.6.6.6.6.6.6.6.6.6.6.6.6.6.6.6.O O O O O O O O O O O O O O O O O 5 Z / #.3.6.6.6.6.6.3.6.6.6.6.6.6.6.6.6.6.6.6.6.6.6.6.",
"6.6.6.6.6.6.6.6.6.6.6.6.6.6.6.6.6.6.6.3.O O O O O O O O O O O O O O O O O & q m ! #.<.3.3.3.3.3.6.6.6.6.6.6.6.6.6.6.6.6.6.6.6.6.",
"6.6.6.6.6.6.6.6.6.6.6.6.6.6.6.6.6.6.6.6.c d 5 O O O O O O O O O O O O O O O O , C ( O.8.3.3.3.3.6.6.6.6.6.6.6.6.6.6.6.6.6.6.6.6.",
"6.6.6.6.6.6.6.6.6.6.6.6.6.6.6.6.6.6.6.6.[ E c - O O O O O O O O O O O O O O O @ y M S 6.8.8.w.8.9.6.6.6.6.6.6.6.6.6.6.6.6.6.6.6.",
"6.6.6.6.6.6.6.6.6.6.6.6.6.6.6.6.6.6.6.6.3.O.E d , @ O O O O O O O O O O O O O O @ - , f.f.d.d.y.w.w.6.6.6.6.6.6.6.6.6.6.6.6.6.6.",
"6.6.6.6.6.6.6.6.6.6.6.6.6.6.6.6.6.6.6.6.3.3.X.E m , O O O O O O O O O O O O O O O O O x.x.x.j.g.y.w.6.6.6.6.6.6.6.6.6.6.6.6.6.6.",
"6.6.6.6.6.6.6.6.6.6.6.6.6.6.6.6.6.6.6.6.6.3.:.O.H r O O O O O O O O O O O O O O O O O m.m.m.v.x.g.y.w.3.3.6.6.6.6.6.6.6.6.6.6.6.",
"6.6.6.6.6.6.6.6.6.6.6.6.6.6.6.6.6.6.6.6.6.:.O.! C 8 O O O O O O O O O O O O O O O O O N.B.N.m.v.j.y.9.3.3.6.6.6.6.6.6.6.6.6.6.6.",
"6.6.6.6.6.6.6.6.6.6.6.6.6.6.6.6.6.6.6.6.6.:.E c 6 @ O @ @ O O O O O O O O O O O O , 8 B.B.N.m.v.j.d.w.3.3.6.6.6.6.6.6.6.6.6.6.6.",
"6.6.6.6.6.6.6.6.6.6.6.6.6.6.6.6.6.6.6.6.6.$.H , O O 6 l k q @ O O O O O O O O @ j ~ ..m.m.m.v.x.g.y.3.3.3.6.6.6.6.6.6.6.6.6.6.6.",
"3.8.3.8.3.8.3.8.3.8.3.8.3.8.3.8.6.6.6.6.6.O.H , O & l E E m * O O O O O O O O , P q.a.x.x.x.j.g.d.w.w.3.6.6.6.6.6.6.6.6.6.6.6.6.",
"8.3.8.3.8.3.8.3.8.3.8.3.8.3.8.3.6.6.6.6.6.:.! c a l H ( ( m * O O O O O O @ 8 c [ 6.a.f.f.i.y.y.y.6.6.6.6.6.6.6.6.6.6.6.6.6.6.6.",
"3.8.3.8.3.8.3.8.3.8.3.8.3.8.3.8.6.6.6.6.6.<.O.( ( ( ! U S a @ O O O O O O 5 m ( O.8.6.w.8.6.w.6.6.6.6.6.6.6.6.6.6.6.6.6.6.6.6.6.",
"8.3.8.3.8.3.8.3.8.3.8.3.8.3.8.3.6.6.6.6.6.6.3.<.:.@./ m , O O O O O O O O a E $.3.3.3.3.6.3.3.6.6.6.6.6.6.6.6.6.6.6.6.6.6.6.6.6.",
"3.8.3.8.3.8.3.8.3.8.3.8.3.8.3.8.6.6.6.6.6.6.6.3.:./ S q O O O O O O O O O t E :.3.3.3.3.3.3.3.3.6.6.6.6.6.6.6.6.6.6.6.6.6.6.6.6.",
"8.3.8.3.8.3.8.3.8.3.8.3.8.3.8.3.6.6.6.6.6.6.3.:./ M 6 @ O O O O O O O O O a E :.6.6.6.6.6.6.6.6.6.6.6.6.6.6.6.6.6.6.6.6.6.6.6.6.",
"3.8.3.8.3.8.3.8.8.8.3.8.8.8.8.8.6.6.6.6.6.<.$.( Z 5 O O O O O O O O O O O a ! :.6.6.6.6.6.6.6.6.6.6.6.6.6.6.6.6.6.6.6.6.6.6.6.6.",
"8.3.8.3.8.3.8.4.<.3.<.<.3.<.<.<.6.6.6.6.3.:./ c q & O O @ & O @ @ O O O O t ! :.6.6.6.6.6.6.6.6.6.6.6.6.6.6.6.6.6.6.6.6.6.6.6.6.",
"3.8.8.8.<.<.8.8.4.4.1.8.<.1.3.8.6.6.6.6.6.#.H 8 O O , a l l c c k a - O O a E :.3.6.6.6.6.6.6.6.6.6.6.6.6.6.6.6.6.6.6.6.6.6.6.6.",
"8.3.<.8.8.8.8.<.8.8.8.8.8.8.w.8.6.6.6.6.6.O.H , O @ l E [ [ { ( ( H q O O a E :.3.6.6.6.6.6.6.6.6.6.6.6.6.6.6.6.6.6.6.6.6.6.6.6.",
"3.8.3.8.8.8.8.w.i.p.p.i.f.f.f.y.y.6.6.6.3.:.H 5 O & C  .3.3.3.3.:.( k O O q I O.3.3.6.6.6.6.6.6.6.6.6.6.6.6.6.6.6.6.6.6.6.6.6.6.",
"8.3.8.<.<.8.r.r.g.j.z.x.z.z.j.g.y.y.6.6.6.O.H 5 O - Z O.6.6.6.6.1.( k O O , c I  .:.6.6.6.6.6.6.6.6.6.6.6.6.6.6.6.6.6.6.6.6.6.6.",
"8.<.8.<.8.8.r.g.x.b.n.n.m.m.v.x.g.y.6.3.6.#.H 5 O & C O.3.6.6.6.1.{ M , @ @ - a E $.6.6.6.6.6.6.6.6.6.6.6.6.6.6.6.6.6.6.6.6.6.6.",
"8.8.8.<.<.w.i.g.b.m.B.B.B.N.m.v.j.y.w.3.3.O.H 5 O - Z O.3.6.6.6.6.O./ m q O O 5 H O.6.6.6.6.6.6.6.6.6.6.6.6.6.6.6.6.6.6.6.6.6.6.",
"<.8.<.8.<.8.p.j.v.m.N.B.B.N.m.v.j.r.w.3.3.#.H , O & C O.3.6.6.6.6.<.:./ c & O , H #.6.6.6.6.6.6.6.6.6.6.6.6.6.6.6.6.6.6.6.6.6.6.",
"<.8.<.8.1.8.i.g.x.b.n.m.m.m.v.x.g.y.6.3.3.$.H 6 O - C O.3.6.6.6.6.6.<.O.Z - O , H #.6.6.6.6.6.6.6.6.6.6.6.6.6.6.6.6.6.6.6.6.6.6.",
"8.8.8.<.8.8.w.i.g.j.z.z.z.x.j.g.y.w.9.6.6.6.6.6.6.6.6.6.6.6.6.6.6.6.6.6.6.6.6.6.6.6.6.6.6.6.6.6.6.6.6.6.6.6.6.6.6.6.6.6.6.6.6.6.",
"8.<.8.8.8.<.8.w.i.d.d.p.f.d.f.r.w.w.6.6.6.6.6.6.6.6.6.6.6.6.6.6.6.6.6.6.6.6.6.6.6.6.6.6.6.6.6.6.6.6.6.6.6.6.6.6.6.6.6.6.6.6.6.6.",
"<.8.<.8.8.8.<.8.4.8.w.8.8.3.8.8.6.6.6.6.6.6.6.6.6.6.6.6.6.6.6.6.6.6.6.6.6.6.6.6.6.6.6.6.6.6.6.6.6.6.6.6.6.6.6.3.6.6.6.6.6.6.6.6.",
"8.8.<.8.<.8.8.8.8.<.<.3.8.8.3.8.6.6.6.6.6.6.6.6.6.6.6.6.6.6.6.6.6.6.6.6.6.6.6.6.6.6.6.6.6.6.6.6.6.6.6.6.3.3.3.3.6.6.6.6.6.6.6.6.",
"8.<.8.8.<.8.8.<.3.3.3.3.3.3.3.3.6.6.6.6.6.6.6.6.6.6.6.6.6.6.6.6.6.6.6.6.6.6.6.6.6.6.6.6.6.6.6.6.6.6.6.6.6.3.3.3.6.6.6.6.6.6.6.6.",
"8.8.<.8.<.8.8.<.3.8.3.8.8.3.3.8.6.6.6.6.6.6.6.6.6.6.6.6.6.6.6.6.6.6.6.6.6.6.6.6.6.6.6.6.6.6.6.6.6.6.6.6.w.6.w.6.6.6.6.6.6.6.6.6.",
"<.<.8.8.8.8.8.8.8.3.8.3.8.3.8.3.6.6.6.6.6.6.6.6.6.6.6.6.6.6.6.6.6.6.6.6.6.6.6.6.6.6.6.6.6.6.6.6.6.6.w.w.y.y.a.y.y.6.6.6.6.6.6.6.",
"8.8.8.<.8.<.<.8.3.8.3.8.3.8.3.8.6.6.6.6.6.6.6.6.6.6.6.6.6.6.6.6.6.6.6.6.6.6.6.6.6.6.6.6.6.6.6.6.6.6.w.d.g.j.j.g.y.y.6.6.6.6.6.6.",
"8.3.8.3.8.3.8.3.8.3.8.3.8.3.8.3.6.6.6.6.6.6.6.6.6.6.6.6.6.6.6.6.6.6.6.6.6.6.6.6.6.6.6.6.6.6.6.3.3.9.y.g.x.v.v.x.g.y.9.3.3.6.6.6.",
"3.8.3.8.3.8.3.8.3.8.3.8.3.8.3.8.6.6.6.6.6.6.6.6.6.6.6.6.6.6.6.6.6.6.6.6.6.6.6.6.6.6.6.6.6.6.6.3.3.9.y.j.v.m.m.v.j.d.9.3.3.6.6.6.",
"8.3.8.3.8.3.8.3.8.3.8.3.8.3.8.3.6.6.6.6.6.6.6.6.6.6.6.6.6.6.6.6.6.6.6.6.6.6.6.6.6.6.6.6.6.6.6.3.3.w.d.j.v.m.m.v.j.y.w.3.3.6.6.6.",
"3.8.3.8.3.8.3.8.3.8.3.8.3.8.3.8.6.6.6.6.6.6.6.6.6.6.6.6.6.6.6.6.6.6.6.6.6.6.6.6.6.6.6.6.6.6.6.3.3.9.y.g.x.v.v.x.g.y.6.3.3.6.6.6.",
"8.3.8.3.8.3.8.3.8.3.8.3.8.3.8.3.6.6.6.6.6.6.6.6.6.6.6.6.6.6.6.6.6.6.6.6.6.6.6.6.6.6.6.6.6.6.6.6.3.9.w.d.g.j.j.g.d.w.6.6.6.6.6.6.",
"3.8.3.8.3.8.3.8.3.8.3.8.3.8.3.8.6.6.6.6.6.6.6.6.6.6.6.6.6.6.6.6.6.6.6.6.6.6.6.6.6.6.6.6.6.6.6.6.3.6.w.e.y.y.y.y.w.w.6.6.6.6.6.6.",
"8.3.8.3.8.3.8.3.8.3.8.3.8.3.8.3.6.6.6.6.6.6.6.6.6.6.6.6.6.6.6.6.6.6.6.6.6.6.6.6.6.6.6.6.6.6.6.6.6.6.3.6.9.w.9.9.6.6.6.6.6.6.6.6.",
"3.8.3.8.3.8.3.8.3.8.3.8.3.8.3.8.6.6.6.6.6.6.6.6.6.6.6.6.6.6.6.6.6.6.6.6.6.6.6.6.6.6.6.6.6.6.6.6.6.6.6.6.3.3.3.3.6.6.6.6.6.6.6.6."
};
