/* XPM */
static char * enemy2_xpm[] = {
"64 64 43 1",
" 	c #47352C",
".	c #46342B",
"+	c #48362D",
"@	c #48372D",
"#	c #4B392F",
"$	c #4E3C31",
"%	c #4B3A2F",
"&	c #514033",
"*	c #564537",
"=	c #5A4939",
"-	c #5E4E3D",
";	c #635340",
">	c #695944",
",	c #503F32",
"'	c #47342C",
")	c #5C4E92",
"!	c #ED182E",
"~	c #8E85A1",
"{	c #FF3535",
"]	c #F3F2C0",
"^	c #E8B5AC",
"/	c #DDD5DE",
"(	c #524034",
"_	c #5E4D3C",
":	c #5D4C3C",
"<	c #645441",
"[	c #685743",
"}	c #6A5A45",
"|	c #6F5E48",
"1	c #71604A",
"2	c #E2E0BB",
"3	c #594839",
"4	c #5A4A3A",
"5	c #F3E1C3",
"6	c #B2A8C5",
"7	c #766DAA",
"8	c #E4DFD4",
"9	c #A099B1",
"0	c #EAE178",
"a	c #8175A8",
"b	c #877BAB",
"c	c #503F33",
"d	c #635240",
"                                                                ",
"                                                                ",
"                                                                ",
"                                                                ",
"                                                                ",
"                                                                ",
"                                                                ",
"                                ....                            ",
"                            .+.......                           ",
"                            +.+@+## @.                          ",
"                            .+##$$$$#@..                        ",
"                          ...#%&*==*&##.                        ",
"                           .. $*-;;-*$@..                       ",
"                           ..+$=;>>;=&@..                       ",
"                           ..#,=;>>;=$#..                       ",
"                           ..+$*-;;-*$@..                       ",
"                           ' +%&*==*,$                          ",
"                              +#$&$$#+                          ",
"                               +@@#                             ",
"                                ...                             ",
"                                ....'                           ",
"                          )))   .  !!!                          ",
"                         )~~~)    !!{!!        .                ",
"                        )]]]]])  )!{{!{)........                ",
"                        )]^^^]))))]{^{{)+..+....                ",
"                        )]^!!]////]^^{])++++++#++               ",
"                        )]^!{]////]^^^])$,&(((&$##              ",
"                        )]]]]]////]]]]])*=____=*$#+             ",
"                        )]]]]]]]]]]]]]]):<[}>>;:*$#..           ",
"                       !)]]]]]]]]]]]]]]))}|11|};=$@..           ",
"                       !)]2{]]]]]]]]{2]))>|11|};3&#..           ",
"                        {]{!]]]]]]]]!{]):<[>>>;:*$...           ",
"                       {)]]]]]]]]]]]]]]))4__-_4*&#@             ",
"                        )]55]]!!!!]]55])$$&((&$$$               ",
"                        )655]]]]]{]]556) # #@ #                 ",
"                         )))77777777))). ... ..                 ",
"                        )68]7790]977]!6)........                ",
"                        !{8]]]]00]]]!!6)                        ",
"                        !!{{]]]]]]]!!{6)                        ",
"       '........         !!!{]]]]]]!{{)                         ",
"          . ...            !{{6))//{{                           ",
"        ++++++#+            !{a  bb{                            ",
"      +#$c(c((&$$           !!    ))                            ",
"   '  $$*=____=*$$                                              ",
"   .  $*_<[>>><_*$ .                                            ",
"   ..#$3<>111|};3$#..                                           ",
"  ...@&3d>|11|};3$#..                                           ",
"  ...@$*_<[>>>;:*$ ..                                           ",
"     ##&*=___:4*$#@                                             ",
"       #$&&((&&$##                                              ",
"         @# @ @                                                 ",
"         ...                                        ....        ",
"        .... ...                                     ...        ",
"                                                    @@@@        ",
"                                                  ##$$&$$       ",
"                                                  #&*==*$$      ",
"                                               ..@$*-;;-*$@..   ",
"                                               ..@$=;>>;=&@..   ",
"                                               ..#&=;>>;=$#..   ",
"                                               ..@$*-;;-*$@..   ",
"                                                .@%&*==*&#      ",
"                                                . #%$$$$##      ",
"                                                  . @#@@        ",
"                                                    ....        "};
