/* XPM */
static char *floor[] = {
/* columns rows colors chars-per-pixel */
"64 64 33 1 ",
"  c #46342B",
". c #46342C",
"X c #47342C",
"o c #47352C",
"O c #48362D",
"+ c #48372D",
"@ c #49372D",
"# c #49372E",
"$ c #4B392F",
"% c #4B3A2F",
"& c #4E3C31",
"* c #4F3E32",
"= c #503F32",
"- c #503F33",
"; c #514033",
": c #524034",
"> c #564536",
", c #564537",
"< c #594839",
"1 c #5A4939",
"2 c #5A4A3A",
"3 c #5D4C3C",
"4 c #5E4D3C",
"5 c #5E4E3D",
"6 c #635240",
"7 c #635340",
"8 c #645441",
"9 c #685743",
"0 c #695944",
"q c #6A5945",
"w c #6A5A45",
"e c #6F5E48",
"r c #71604A",
/* pixels */
"oooooooooooooooooooooooooooooooooooooooooooooooooooooooooooooooo",
"oooooooooooooooooooooooooooooooooooooooooooooooooooooooooooooooo",
"oooooooooooooooooooooooooooooooooooooooooooooooooooooooooooooooo",
"oooooooooooooooooooooooooooooooooooooooooooooooooooooooooooooooo",
"oooooooooooooooooooooooooooooooooooooooooooooooooooooooooooooooo",
"oooooooooooooooooooooooooooooooooooooooooooooooooooooooooooooooo",
"oooooooooooooooooooooooooooooooooooooooooooooooooooooooooooooooo",
"oooooooooooooooooooooooooooooooo    oooooooooooooooooooooooooooo",
"oooooooooooooooooooooooooooo O       ooooooooooooooooooooooooooo",
"ooooooooooooooooooooooooooooO O+O$$o+ oooooooooooooooooooooooooo",
"oooooooooooooooooooooooooooo O$$&&&&$+  oooooooooooooooooooooooo",
"oooooooooooooooooooooooooo   $%;,11,;$$ oooooooooooooooooooooooo",
"ooooooooooooooooooooooooooo  o&,5775,&+  ooooooooooooooooooooooo",
"ooooooooooooooooooooooooooo  O&170071;+  ooooooooooooooooooooooo",
"ooooooooooooooooooooooooooo  $=170071&$  ooooooooooooooooooooooo",
"ooooooooooooooooooooooooooo  O&,5775,&+  ooooooooooooooooooooooo",
"oooooooooooooooooooooooooooXoO%;,11,=&oooooooooooooooooooooooooo",
"ooooooooooooooooooooooooooooooO$&;&&$Ooooooooooooooooooooooooooo",
"oooooooooooooooooooooooooooooooO++$ooooooooooooooooooooooooooooo",
"oooooooooooooooooooooooooooooooo   ooooooooooooooooooooooooooooo",
"oooooooooooooooooooooooooooooooo    Xooooooooooooooooooooooooooo",
"oooooooooooooooooooooooooooooooo ooooooooooooooooooooooooooooooo",
"ooooooooooooooooooooooooooooooooooooooooooooooo oooooooooooooooo",
"oooooooooooooooooooooooooooooooooooooooX        oooooooooooooooo",
"ooooooooooooooooooooooooooooooooooooooooO  O    oooooooooooooooo",
"ooooooooooooooooooooooooooooooooooooooooOOOOOO$OOooooooooooooooo",
"ooooooooooooooooooooooooooooooooooooo $$&=;:::;&$$oooooooooooooo",
"ooooooooooooooooooooooooooooooooooooo$%&,144441,&$Oooooooooooooo",
"oooooooooooooooooooooooooooooooooo   o&,389w0073,&$  ooooooooooo",
"ooooooooooooooooooooooooooooooooooo  $&<8werrew71&+  ooooooooooo",
"oooooooooooooooooooooooooooooooooo   $;<60errew7<;$  ooooooooooo",
"oooooooooooooooooooooooooooooooooo   +%,38900073,&   ooooooooooo",
"ooooooooooooooooooooooooooooooooooooo$$&,244542,;$+ooooooooooooo",
"oooooooooooooooooooooooooooooooooooooo$$&&;::;&&&ooooooooooooooo",
"oooooooooooooooooooooooooooooooooooooo +o$o$+o$ooooooooooooooooo",
"ooooooooooooooooooooooooooooooooooooooo o   o  ooooooooooooooooo",
"oooooooooooooooooooooooooooooooooooooooo        oooooooooooooooo",
"oooooooooooooooooooooooooooooooooooooooooooooooooooooooooooooooo",
"oooooooooooooooooooooooooooooooooooooooooooooooooooooooooooooooo",
"oooooooX        oooooooooooooooooooooooooooooooooooooooooooooooo",
"oooooooooo o   ooooooooooooooooooooooooooooooooooooooooooooooooo",
"ooooooooOOOOOO$Ooooooooooooooooooooooooooooooooooooooooooooooooo",
"ooooooO$&-:-::;&&ooooooooooooooooooooooooooooooooooooooooooooooo",
"oooXoo&&,144441,&&oooooooooooooooooooooooooooooooooooooooooooooo",
"ooo oo&,48900084,&o oooooooooooooooooooooooooooooooooooooooooooo",
"ooo  $&<80rrrew7<&$  ooooooooooooooooooooooooooooooooooooooooooo",
"oo   +;<60errew7<&$  ooooooooooooooooooooooooooooooooooooooooooo",
"oo   +&,48900073,&o  ooooooooooooooooooooooooooooooooooooooooooo",
"ooooo$$;,144432,&$+ooooooooooooooooooooooooooooooooooooooooooooo",
"ooooooo$&;;::;;&$$oooooooooooooooooooooooooooooooooooooooooooooo",
"ooooooooo+$o+o+ooooooooooooooooooooooooooooooooooooooooooooooooo",
"ooooooooo   oooooooooooooooooooooooooooooooooooooooo    oooooooo",
"oooooooo    o   ooooooooooooooooooooooooooooooooooooo   oooooooo",
"oooooooooooooooooooooooooooooooooooooooooooooooooooo++++oooooooo",
"oooooooooooooooooooooooooooooooooooooooooooooooooo$$&&;&&ooooooo",
"oooooooooooooooooooooooooooooooooooooooooooooooooo$;,11,&&oooooo",
"ooooooooooooooooooooooooooooooooooooooooooooooo  +&,5775,&+  ooo",
"ooooooooooooooooooooooooooooooooooooooooooooooo  +&170071;+  ooo",
"ooooooooooooooooooooooooooooooooooooooooooooooo  $;170071&$  ooo",
"ooooooooooooooooooooooooooooooooooooooooooooooo  +&,5775,&+  ooo",
"oooooooooooooooooooooooooooooooooooooooooooooooo +%;,11,;$oooooo",
"oooooooooooooooooooooooooooooooooooooooooooooooo o$%&&&&$$oooooo",
"oooooooooooooooooooooooooooooooooooooooooooooooooo o+$++oooooooo",
"oooooooooooooooooooooooooooooooooooooooooooooooooooo    oooooooo"
};
