/* XPM */
static char * object2_xpm[] = {
"64 64 437 2",
"  	c #47352C",
". 	c #381637",
"+ 	c #350B39",
"@ 	c #360F38",
"# 	c #33003A",
"$ 	c #371138",
"% 	c #371238",
"& 	c #321032",
"* 	c #2E0033",
"= 	c #270037",
"- 	c #331232",
"; 	c #49382E",
"> 	c #504336",
", 	c #4D4037",
"' 	c #4D3F36",
") 	c #4B3B32",
"! 	c #3B1D36",
"~ 	c #33013A",
"{ 	c #2D0132",
"] 	c #ABCECE",
"^ 	c #B6DCDB",
"/ 	c #B4DCDC",
"( 	c #FDE1A6",
"_ 	c #FEE1A5",
": 	c #3C1F35",
"< 	c #2D0032",
"[ 	c #ABCFCF",
"} 	c #B6DDDC",
"| 	c #B4DDDD",
"1 	c #FEE2A6",
"2 	c #FFE2A5",
"3 	c #46342D",
"4 	c #423030",
"5 	c #3E2B41",
"6 	c #3C284A",
"7 	c #371944",
"8 	c #AFCECD",
"9 	c #BADCD9",
"0 	c #B8DCDA",
"a 	c #FBE2A9",
"b 	c #FCE2A8",
"c 	c #412E42",
"d 	c #483630",
"e 	c #433130",
"f 	c #402832",
"g 	c #330039",
"h 	c #809AB1",
"i 	c #98BBD4",
"j 	c #96BBD5",
"k 	c #F5BD98",
"l 	c #FFBD8C",
"m 	c #FFBD8A",
"n 	c #B6DCDC",
"o 	c #320039",
"p 	c #7F99B0",
"q 	c #97B9D2",
"r 	c #95B9D3",
"s 	c #F4BD9A",
"t 	c #FFBE8E",
"u 	c #B8DCDB",
"v 	c #402932",
"w 	c #402C30",
"x 	c #44302F",
"y 	c #504B52",
"z 	c #5E6671",
"A 	c #9AA3B0",
"B 	c #B0BAC8",
"C 	c #AFBAC8",
"D 	c #ECC3A6",
"E 	c #F4C4A0",
"F 	c #F5C49F",
"G 	c #BCE3E2",
"H 	c #BAE4E3",
"I 	c #504C52",
"J 	c #45312D",
"K 	c #7F9499",
"L 	c #B7DEDD",
"M 	c #EACAAE",
"N 	c #FFBE8D",
"O 	c #FFBE8B",
"P 	c #C2D9D4",
"Q 	c #B5DDDD",
"R 	c #B4DDDC",
"S 	c #CCFFFE",
"T 	c #7E9498",
"U 	c #E9C9AE",
"V 	c #C2D9D3",
"W 	c #CCFEFD",
"X 	c #778A96",
"Y 	c #AACFD8",
"Z 	c #E6BFAC",
"` 	c #FFB58E",
" .	c #FFB48C",
"..	c #B9CCD0",
"+.	c #C3F1F0",
"@.	c #C3F2F1",
"#.	c #6A7B92",
"$.	c #E2ADAA",
"%.	c #FFA68E",
"&.	c #FFA68D",
"*.	c #ABB7CA",
"=.	c #96B8D2",
"-.	c #B5DCDC",
";.	c #47362D",
">.	c #473931",
",.	c #443432",
"'.	c #96B9D2",
").	c #FFA68C",
"!.	c #AAB7CA",
"~.	c #473930",
"{.	c #47362E",
"].	c #3B2139",
"^.	c #3B1F37",
"/.	c #4F3E5E",
"(.	c #847DB2",
"_.	c #837CB1",
":.	c #B28CAE",
"<.	c #E2A0AA",
"[.	c #D09EB8",
"}.	c #C69CBF",
"|.	c #C59CBF",
"1.	c #DEA0AD",
"2.	c #E3A0A9",
"3.	c #A4C6D5",
"4.	c #A3C6D6",
"5.	c #47342C",
"6.	c #47312C",
"7.	c #47362F",
"8.	c #54436D",
"9.	c #9D98D4",
"0.	c #9C97D3",
"a.	c #CC95BB",
"b.	c #FF918E",
"c.	c #C695BF",
"d.	c #9A97D4",
"e.	c #F4929A",
"f.	c #FF908C",
"g.	c #9AB8D1",
"h.	c #47352F",
"i.	c #53446E",
"j.	c #9A98D5",
"k.	c #FF918D",
"l.	c #FF918C",
"m.	c #C695BE",
"n.	c #9C96D3",
"o.	c #9A96D4",
"p.	c #F59299",
"q.	c #FF908B",
"r.	c #98B9D2",
"s.	c #95BAD3",
"t.	c #47352E",
"u.	c #7A3A56",
"v.	c #F6849A",
"w.	c #F48399",
"x.	c #DB8BB0",
"y.	c #AE96CB",
"z.	c #A0ABD0",
"A.	c #98B5D2",
"B.	c #97B5D2",
"C.	c #AB9BCC",
"D.	c #AD96CC",
"E.	c #F38A9A",
"F.	c #F48A99",
"G.	c #7E3852",
"H.	c #FF818E",
"I.	c #FF808D",
"J.	c #DE8AAE",
"K.	c #99AED2",
"L.	c #9B9CD3",
"M.	c #9997D4",
"N.	c #FD818F",
"O.	c #45332C",
"P.	c #7F3851",
"Q.	c #9B98D3",
"R.	c #9B97D3",
"S.	c #98AFD2",
"T.	c #97BAD2",
"U.	c #9B9DD3",
"V.	c #9998D4",
"W.	c #FE818F",
"X.	c #47342D",
"Y.	c #782C53",
"Z.	c #F26993",
"`.	c #F06992",
" +	c #DC70A7",
".+	c #B979C1",
"++	c #A78ECD",
"@+	c #9C98D3",
"#+	c #B67EC4",
"$+	c #B879C2",
"%+	c #EF6993",
"&+	c #F16993",
"*+	c #F06892",
"=+	c #DC6FA7",
"-+	c #BA78C1",
";+	c #A78DCD",
">+	c #B67DC4",
",+	c #B978C2",
"'+	c #EF6893",
")+	c #43312F",
"!+	c #43312E",
"~+	c #483730",
"{+	c #4B3B35",
"]+	c #4B3935",
"^+	c #400A3E",
"/+	c #7C2E55",
"(+	c #F16893",
"_+	c #EF6892",
":+	c #BB78C0",
"<+	c #A88DCC",
"[+	c #9D96D3",
"}+	c #B87DC3",
"|+	c #EE6894",
"1+	c #7B2E56",
"2+	c #3D073F",
"3+	c #3D083F",
"4+	c #47352D",
"5+	c #473430",
"6+	c #47302C",
"7+	c #48372E",
"8+	c #4A1141",
"9+	c #F46A94",
"0+	c #EC6695",
"a+	c #CF559E",
"b+	c #CF569E",
"c+	c #DE5D99",
"d+	c #F16891",
"e+	c #CF72B2",
"f+	c #BA77C1",
"g+	c #B978C1",
"h+	c #EA6A99",
"i+	c #D0569E",
"j+	c #D1579F",
"k+	c #D2579F",
"l+	c #D358A0",
"m+	c #440D42",
"n+	c #34033A",
"o+	c #4A1241",
"p+	c #EB6594",
"q+	c #DE5E99",
"r+	c #CF73B3",
"s+	c #E96A9A",
"t+	c #F16892",
"u+	c #D1569E",
"v+	c #450D42",
"w+	c #340539",
"x+	c #34053A",
"y+	c #48372D",
"z+	c #491141",
"A+	c #EE6795",
"B+	c #EC6694",
"C+	c #E86495",
"D+	c #D5599D",
"E+	c #D5599C",
"F+	c #DF5E99",
"G+	c #D271AF",
"H+	c #C376BB",
"I+	c #C276BC",
"J+	c #E7689A",
"K+	c #D1579E",
"L+	c #34043A",
"M+	c #D6599C",
"N+	c #E46197",
"O+	c #E66296",
"P+	c #D4589C",
"Q+	c #D65A9C",
"R+	c #48362D",
"S+	c #481142",
"T+	c #E4689A",
"U+	c #E26798",
"V+	c #E66D97",
"W+	c #F68291",
"X+	c #F58291",
"Y+	c #EE7894",
"Z+	c #E06CA0",
"`+	c #DF6EA4",
" @	c #E1689A",
".@	c #E16699",
"+@	c #F58D91",
"@@	c #F58E91",
"#@	c #4D1840",
"$@	c #FF888D",
"%@	c #FF988E",
"&@	c #D57BB1",
"*@	c #B878C2",
"=@	c #F77F96",
"-@	c #FF7F8D",
";@	c #FFBD8E",
">@	c #FF7E8D",
",@	c #33023A",
"'@	c #46342B",
")@	c #4B392F",
"!@	c #4D1F40",
"~@	c #FF998F",
"{@	c #FFA390",
"]@	c #FFCD9C",
"^@	c #FFCC9C",
"/@	c #FFB996",
"(@	c #FF988D",
"_@	c #CC90B9",
":@	c #A98BCC",
"<@	c #A78BCD",
"[@	c #F5A598",
"}@	c #FFA88E",
"|@	c #FFA78D",
"1@	c #FFE69C",
"2@	c #FFE79C",
"3@	c #4D2241",
"4@	c #FFA88F",
"5@	c #FFB393",
"6@	c #FFE3A5",
"7@	c #F4B99A",
"8@	c #FFFDA5",
"9@	c #FFFEA5",
"0@	c #FFA890",
"a@	c #FFA78F",
"b@	c #FFB493",
"c@	c #FFE3A6",
"d@	c #C59DBF",
"e@	c #9897D5",
"f@	c #F5BA99",
"g@	c #FFFFA5",
"h@	c #4E2341",
"i@	c #453332",
"j@	c #483432",
"k@	c #4A3633",
"l@	c #503A36",
"m@	c #7F4B52",
"n@	c #7E4B52",
"o@	c #A16F62",
"p@	c #FFC693",
"q@	c #FFC593",
"r@	c #E4B5AB",
"s@	c #B49AC9",
"t@	c #DE8CAE",
"u@	c #F1859D",
"v@	c #F2849C",
"w@	c #BE9CC3",
"x@	c #B49FC9",
"y@	c #B29EC9",
"z@	c #FECB94",
"A@	c #FFCC93",
"B@	c #483131",
"C@	c #7E5752",
"D@	c #FFBF8F",
"E@	c #DEAFAE",
"F@	c #E389AA",
"G@	c #FF808B",
"H@	c #AE94CB",
"I@	c #9996D4",
"J@	c #FDBD90",
"K@	c #42302F",
"L@	c #7F5751",
"M@	c #FFC08D",
"N@	c #FFBF8C",
"O@	c #DEB0AE",
"P@	c #E287AA",
"Q@	c #FF7E8B",
"R@	c #AC94CC",
"S@	c #9696D5",
"T@	c #FFBE8C",
"U@	c #56446C",
"V@	c #A39AD2",
"W@	c #A299D1",
"X@	c #CD9EBA",
"Y@	c #FCA592",
"Z@	c #FEB48F",
"`@	c #FFBC8E",
" #	c #FCA991",
".#	c #FDA590",
"+#	c #A0B9CF",
"@#	c #9DB9D0",
"##	c #443330",
"$#	c #CC9DBB",
"%#	c #FFB68E",
"&#	c #FFAA8E",
"*#	c #9AB9D1",
"=#	c #4D3B31",
"-#	c #4A3831",
";#	c #514033",
">#	c #4E3C31",
",#	c #554337",
"'#	c #564239",
")#	c #5A4939",
"!#	c #564537",
"~#	c #9C97D4",
"{#	c #9C97D2",
"]#	c #FFA68F",
"^#	c #FFBF8E",
"/#	c #FFAA8F",
"(#	c #9BB9D1",
"_#	c #5D4C3D",
":#	c #5E4B40",
"<#	c #635340",
"[#	c #5E4E3D",
"}#	c #4A2E48",
"|#	c #462945",
"1#	c #2F0034",
"2#	c #300034",
"3#	c #687A91",
"4#	c #E2D5B7",
"5#	c #FFE3A4",
"6#	c #C1DED6",
"7#	c #B5DEDD",
"8#	c #CDFFFF",
"9#	c #625240",
"0#	c #655544",
"a#	c #695944",
"b#	c #462946",
"c#	c #E2D5B6",
"d#	c #FFE2A4",
"e#	c #C2DED5",
"f#	c #5D4D3E",
"g#	c #5F4F40",
"h#	c #4A2F46",
"i#	c #462A44",
"j#	c #67768C",
"k#	c #92B1C9",
"l#	c #D9CCAE",
"m#	c #F4D89E",
"n#	c #F4D89D",
"o#	c #BAD5CC",
"p#	c #AFD4D3",
"q#	c #AFD3D2",
"r#	c #C4F3F2",
"s#	c #C4F4F3",
"t#	c #F2D69B",
"u#	c #EED29A",
"v#	c #D3C6A9",
"w#	c #8EACC3",
"x#	c #657388",
"y#	c #462B43",
"z#	c #4A3045",
"A#	c #4B3146",
"B#	c #564438",
"C#	c #59453C",
"D#	c #4B3A2F",
"                                                                                                                                ",
"                                                                                                                                ",
"                                                                                                                                ",
"                                                  . + + + + + + + + + + .                                                       ",
"                                                  @ # # # # # # # # # # $                                                       ",
"                                                  @ # # # # # # # # # # %                                                       ",
"                                                  & * * * = = = = * * * - ; > , ' )                                             ",
"                                          ! ~ ~ { ] ^ ^ / ( _ _ ( / ^ ^ ] { ~ ~ :                                               ",
"                                          ! # # < [ } } | 1 2 2 1 | } } [ < # # :                                               ",
"                                          ! # # < [ } } | 1 2 2 1 | } } [ < # # :                                               ",
"                                    3 4 4 5 6 6 7 8 9 9 0 a b b a 0 9 9 8 7 6 6 c d 3 4 e                                       ",
"                                  f # # g h i i j k l l m n | | n m l l k j i i h o # # f                                       ",
"                                  f # # g p q q r s t t l u } } u l t t s r q q p g # # v                                       ",
"                                  f # # g p q q r s t t l u } } u l t t s r q q p g # # v                                       ",
"                          3 w x x y z z z A B B C D E E F G H H G F E E D C B B A z z z I x x x 3 J                             ",
"                          x # # # K L L L M N N O P Q Q R S S S S R Q Q P O N N M L L L K # # # x                               ",
"                          x # # # T } } } U t t l V } } ^ W S S W ^ } } V l t t U } } } T # # # x                               ",
"                          x # # # T } } } U t t l V } } ^ W S S W ^ } } V l t t U } } } T # # # x                               ",
"                          x # # # X Y Y Y Z ` `  ...Y Y Y +.@.@.+.Y Y Y .. .` ` Z Y Y Y X # # # x                               ",
"                          x # # # #.q q q $.%.%.&.*.q q =.-.} } -.=.q q *.&.%.%.$.q q q #.# # # x                               ",
"                          x # # # #.q q q $.%.%.&.*.q q =.-.} } -.=.q q *.&.%.%.$.q q q #.# # # x                               ",
"                    ;.>.>.,.g g g #.q q '.$.%.%.).!.q q =.-.} } -.=.q q !.).%.%.$.'.q q #.g g g x ;.>.>.~.                      ",
"                  {.].^.^./.(._._.:.<.<.<.[.}.}.|.1.<.<.2.3.4.4.3.2.<.<.1.|.}.}.[.<.<.<.:._._.(./.^.^.^.5.6.                    ",
"                  7.# # # 8.9.0.0.a.b.b.b.c.0.0.d.e.b.b.f.g.q q g.f.b.b.e.d.0.0.c.b.b.b.a.0.0.9.8.# # # 3 e                     ",
"                  7.# # # 8.9.0.0.a.b.b.b.c.0.0.d.e.b.b.f.g.q q g.f.b.b.e.d.0.0.c.b.b.b.a.0.0.9.8.# # # 3 e                     ",
"                  h.# # # i.j.d.d.a.k.k.l.m.n.n.o.p.k.k.q.r.s.s.r.q.k.k.p.o.n.n.m.l.k.k.a.d.d.j.i.# # # 3 e                     ",
"                  t.# # # u.v.w.w.x.y.y.y.z.A.A.B.C.y.y.D.E.F.F.E.D.y.y.C.B.A.A.z.y.y.y.x.w.w.v.u.# # # 3 e                     ",
"                  t.# # # G.H.I.I.J.0.0.0.K.q q q L.0.0.M.N.I.I.N.M.0.0.L.q q q K.0.0.0.J.I.I.H.G.# # # 3 e                     ",
"                  t.# # # G.H.I.I.J.0.0.0.K.q q q L.0.0.M.N.I.I.N.M.0.0.L.q q q K.0.0.0.J.I.I.H.G.# # # O.e                     ",
"                  t.# # # P.H.I.I.J.Q.R.R.S.T.T.T.U.R.R.V.W.I.I.W.V.R.R.U.T.T.T.S.R.R.Q.J.I.I.H.P.# # # O.e                     ",
"                  X.# # # Y.Z.`.`. +.+.+.+++@+@+Q.#+.+.+$+%+`.`.%+$+.+.+#+Q.@+@+++.+.+.+ +`.`.Z.Y.# # # O.e                     ",
"                  X.# # # Y.&+*+*+=+-+-+-+;+0.0.R.>+-+-+,+'+*+*+'+,+-+-+>+R.0.0.;+-+-+-+=+*+*+&+Y.# # # O.)+                    ",
"                  3 # # # Y.&+*+*+=+-+-+-+;+0.0.R.>+-+-+,+'+*+*+'+,+-+-+>+R.0.0.;+-+-+-+=+*+*+&+Y.# # # 3 !+                    ",
"            ~+{+{+]+^+^+^+/+(+_+_+=+:+:+:+<+[+[+0.}+:+:+-+|+_+_+|+-+:+:+}+0.[+[+<+:+:+:+=+_+_+(+1+2+2+3+d 4+5+6+6.              ",
"          7+# # # 8+9+Z.Z.0+a+b+b+c+d+d+d+e+f+f+g+h+d+d+d+i+b+b+i+d+d+d+h+g+f+f+e+d+d+d+c+b+b+b+j+k+k+l+m+# # n+                ",
"          7+~ # # o+Z.*+*+p+i+i+i+q+*+*+*+r+-+-+,+s+*+*+t+u+i+i+u+t+*+*+s+,+-+-+r+*+*+*+q+i+i+i+i+i+i+k+v+# # w+                ",
"          7+~ # # o+Z.*+*+p+i+i+i+q+*+*+*+r+-+-+,+s+*+*+t+u+i+i+u+t+*+*+s+,+-+-+r+*+*+*+q+i+i+i+i+i+i+k+v+# # x+                ",
"          y+~ # # z+A+B+B+C+D+E+E+F+B+B+B+G+H+H+I+J+B+B+B+E+E+E+E+B+B+B+J+I+H+H+G+B+B+B+F+E+E+E+K+i+i+k+v+# # L+                ",
"          y+~ # # m+j+b+b+M+t+*+*+N+b+b+b+O+d+d+d+P+b+b+a+*+*+*+*+a+b+b+P+d+d+d+O+b+b+b+N+*+*+t+Q+i+i+k+v+# # L+                ",
"          R+~ # # v+k+i+i+Q+*+*+*+N+i+i+i+O+*+*+*+E+i+i+b+_+*+*+_+b+i+i+E+*+*+*+O+i+i+i+N+*+*+*+Q+i+i+k+v+# # L+                ",
"          y+~ # # v+k+i+i+Q+*+*+*+N+i+i+i+O+*+*+*+E+i+i+b+_+*+*+_+b+i+i+E+*+*+*+O+i+i+i+N+*+*+*+Q+i+i+k+v+# # L+                ",
"          R+~ # # S+T+U+U+V+W+X+X+Y+U+U+U+Z+`+`+`+ @U+U+.@+@@@@@+@.@U+U+ @`+`+`+Z+U+U+U+Y+X+X+W+V+U+U+T+S+# # n+                ",
"          y+~ # # #@H.I.I.$@%.%.%.%@I.I.I.&@-+-+*@=@I.I.-@;@t t ;@-@I.I.=@*@-+-+&@I.I.I.%@%.%.%.$@I.I.H.#@# # n+                ",
"      5.    ~ # # #@H.I.I.$@%.%.%.%@I.I.I.&@-+-+,+=@I.I.>@;@t t ;@>@I.I.=@,+-+-+&@I.I.I.%@%.%.%.$@I.I.H.#@# # ,@                ",
"      '@    ~ # # #@H.I.I.$@%.%.%.%@I.I.I.&@-+-+,+=@I.I.>@;@t t ;@>@I.I.=@,+-+-+&@I.I.I.%@%.%.%.$@I.I.H.#@# # ,@                ",
"      '@'@)@~ # # !@~@%@%@{@]@^@^@/@%@%@(@_@:@:@<@[@}@}@|@1@2@2@1@|@}@}@[@<@:@:@_@(@%@%@/@^@^@]@{@%@%@~@!@# # ,@                ",
"    '@'@'@y+~ # # 3@4@%.%.5@6@2 2 ^@%.%.%.}.0.0.o.7@t t ;@8@9@9@8@;@t t 7@o.0.0.}.%.%.%.^@2 2 6@5@%.%.4@3@# # ,@                ",
"    '@'@'@y+~ # # 3@4@%.%.5@6@2 2 ^@%.%.%.}.0.0.o.7@t t ;@8@9@9@8@;@t t 7@o.0.0.}.%.%.%.^@2 2 6@5@%.%.4@3@# # ~                 ",
"          )@# # # 3@0@a@a@b@c@2 2 ]@&.&.&.d@d.d.e@f@N N l 8@g@g@8@l N N f@e@d.d.d@&.&.&.]@2 2 c@b@a@a@0@h@~ ~ ,@                ",
"            i@j@k@l@m@n@n@o@p@q@q@r@s@s@s@t@u@u@v@w@x@x@y@z@A@A@z@y@x@x@w@v@u@u@t@s@s@s@r@q@q@p@o@n@n@m@B@x x x                 ",
"                  {.# # # C@D@t t E@0.0.0.F@I.I.G@H@0.0.I@J@t t J@I@0.0.H@G@I.I.F@0.0.0.E@t t D@C@# # # 3 e                     ",
"                  O.# # # C@D@t t E@0.0.0.F@I.I.G@H@0.0.I@J@t t J@I@0.0.H@G@I.I.F@0.0.0.E@t t D@C@# # # O.K@'@'@                ",
"                '@O.# # # L@M@N@N@O@M.M.M.P@>@>@Q@R@M.M.S@;@T@T@;@S@M.M.R@Q@>@>@P@M.M.M.O@N@N@M@L@# # # 3 K@'@'@                ",
"                  3 # # # U@V@W@W@X@Y@Y@Y@Z@`@`@`@ #Y@Y@.#+#@#@#+#.#Y@Y@ #`@`@`@Z@Y@Y@Y@X@W@W@V@U@# # # {.##y+y+                ",
"                  3 # # # 8.9.0.0.$#%.%.%.%#t t t &#%.%.).*#q q *#).%.%.&#t t t %#%.%.%.$#0.0.9.8.# # # =#-#;#>#>#              ",
"                  3 # # # 8.9.0.0.$#%.%.%.%#t t t &#%.%.).*#q q *#).%.%.&#t t t %#%.%.%.$#0.0.9.8.# # # ,#'#)#!#>#>#            ",
"                  3 ~ ~ ~ 8.~#{#{#$#]#]#]#%#t t ^#/#]#]#&.(#T.T.(#&.]#]#/#^#t t %#]#]#]#$#{#{#~#8.~ ~ ~ _#:#<#[#!#>#y+'@'@      ",
"                  t.}#}#}#|#1#2#2#3#r r r 4#2 2 5#6#7#7#R S 8#8#S R 7#7#6#5#2 2 4#r r r 3#2#2#1#|#}#}#}#9#0#a#<#)#;#y+'@'@      ",
"                  t.}#}#}#b## # # #.q q q c#2 2 d#e#} } ^ W S S W ^ } } e#d#2 2 c#q q q #.# # # b#}#}#}#9#0#a#<#)#>#)@'@'@      ",
"                  t.}#}#}#b## # # #.q q q c#2 2 d#e#} } ^ W S S W ^ } } e#d#2 2 c#q q q #.# # # b#}#}#}#f#g#<#[#!#>#y+'@'@      ",
"                  4+h#h#h#i#+ + + j#k#k#k#l#m#m#n#o#p#p#q#r#s#s#r#q#p#p#o#t#u#u#v#w#w#w#x#$ $ $ y#z#z#A#B#C#)#!#;#)@            ",
"                                                                                                '@  )@D#>#>#>#>#)@)@            ",
"                                                                                                    '@  y+)@y+y+                ",
"                                                                                                        '@'@'@'@                "};
