/* XPM */
static char * object_xpm[] = {
"64 64 334 2",
"  	c None",
". 	c #33003A",
"+ 	c #2E0033",
"@ 	c #270037",
"# 	c #2D0032",
"$ 	c #ABCECE",
"% 	c #B6DCDB",
"& 	c #B4DCDC",
"* 	c #FDE1A6",
"= 	c #FEE1A5",
"- 	c #ABCFCF",
"; 	c #B6DDDC",
"> 	c #B4DDDD",
", 	c #FEE2A6",
"' 	c #FFE2A5",
") 	c #3C2749",
"! 	c #3C284A",
"~ 	c #371944",
"{ 	c #AFCECD",
"] 	c #BADCD9",
"^ 	c #B8DCDA",
"/ 	c #FBE2A9",
"( 	c #FCE2A8",
"_ 	c #3D2A4A",
": 	c #330039",
"< 	c #809AB1",
"[ 	c #98BBD4",
"} 	c #96BBD5",
"| 	c #F5BD98",
"1 	c #FFBD8C",
"2 	c #FFBD8A",
"3 	c #B6DCDC",
"4 	c #320039",
"5 	c #7F99B0",
"6 	c #97B9D2",
"7 	c #95B9D3",
"8 	c #F4BD9A",
"9 	c #FFBE8E",
"0 	c #B8DCDB",
"a 	c #575B68",
"b 	c #5E6671",
"c 	c #9AA3B0",
"d 	c #B0BAC8",
"e 	c #AFBAC8",
"f 	c #ECC3A6",
"g 	c #F4C4A0",
"h 	c #F5C49F",
"i 	c #BCE3E2",
"j 	c #BAE4E3",
"k 	c #585D6A",
"l 	c #7F9499",
"m 	c #B7DEDD",
"n 	c #EACAAE",
"o 	c #FFBE8D",
"p 	c #FFBE8B",
"q 	c #C2D9D4",
"r 	c #B5DDDD",
"s 	c #B4DDDC",
"t 	c #CCFFFE",
"u 	c #7E9498",
"v 	c #E9C9AE",
"w 	c #C2D9D3",
"x 	c #CCFEFD",
"y 	c #778A96",
"z 	c #AACFD8",
"A 	c #E6BFAC",
"B 	c #FFB58E",
"C 	c #FFB48C",
"D 	c #B9CCD0",
"E 	c #C3F1F0",
"F 	c #C3F2F1",
"G 	c #6A7B92",
"H 	c #E2ADAA",
"I 	c #FFA68E",
"J 	c #FFA68D",
"K 	c #ABB7CA",
"L 	c #96B8D2",
"M 	c #B5DCDC",
"N 	c #96B9D2",
"O 	c #FFA68C",
"P 	c #AAB7CA",
"Q 	c #350C3B",
"R 	c #52416A",
"S 	c #847DB2",
"T 	c #837CB1",
"U 	c #B28CAE",
"V 	c #E2A0AA",
"W 	c #D09EB8",
"X 	c #C69CBF",
"Y 	c #C59CBF",
"Z 	c #DEA0AD",
"` 	c #E3A0A9",
" .	c #A4C6D5",
"..	c #A3C6D6",
"+.	c #54436D",
"@.	c #9D98D4",
"#.	c #9C97D3",
"$.	c #CC95BB",
"%.	c #FF918E",
"&.	c #C695BF",
"*.	c #9A97D4",
"=.	c #F4929A",
"-.	c #FF908C",
";.	c #9AB8D1",
">.	c #53446E",
",.	c #9A98D5",
"'.	c #FF918D",
").	c #FF918C",
"!.	c #C695BE",
"~.	c #9C96D3",
"{.	c #9A96D4",
"].	c #F59299",
"^.	c #FF908B",
"/.	c #98B9D2",
"(.	c #95BAD3",
"_.	c #7A3A56",
":.	c #F6849A",
"<.	c #F48399",
"[.	c #DB8BB0",
"}.	c #AE96CB",
"|.	c #A0ABD0",
"1.	c #98B5D2",
"2.	c #97B5D2",
"3.	c #AB9BCC",
"4.	c #AD96CC",
"5.	c #F38A9A",
"6.	c #F48A99",
"7.	c #7E3852",
"8.	c #FF818E",
"9.	c #FF808D",
"0.	c #DE8AAE",
"a.	c #99AED2",
"b.	c #9B9CD3",
"c.	c #9997D4",
"d.	c #FD818F",
"e.	c #7F3851",
"f.	c #9B98D3",
"g.	c #9B97D3",
"h.	c #98AFD2",
"i.	c #97BAD2",
"j.	c #9B9DD3",
"k.	c #9998D4",
"l.	c #FE818F",
"m.	c #782C53",
"n.	c #F26993",
"o.	c #F06992",
"p.	c #DC70A7",
"q.	c #B979C1",
"r.	c #A78ECD",
"s.	c #9C98D3",
"t.	c #B67EC4",
"u.	c #B879C2",
"v.	c #EF6993",
"w.	c #F16993",
"x.	c #F06892",
"y.	c #DC6FA7",
"z.	c #BA78C1",
"A.	c #A78DCD",
"B.	c #B67DC4",
"C.	c #B978C2",
"D.	c #EF6893",
"E.	c #400A3E",
"F.	c #7C2E55",
"G.	c #F16893",
"H.	c #EF6892",
"I.	c #BB78C0",
"J.	c #A88DCC",
"K.	c #9D96D3",
"L.	c #B87DC3",
"M.	c #EE6894",
"N.	c #7B2E56",
"O.	c #3D073F",
"P.	c #4A1141",
"Q.	c #F46A94",
"R.	c #EC6695",
"S.	c #CF559E",
"T.	c #CF569E",
"U.	c #DE5D99",
"V.	c #F16891",
"W.	c #CF72B2",
"X.	c #BA77C1",
"Y.	c #B978C1",
"Z.	c #EA6A99",
"`.	c #D0569E",
" +	c #D1579F",
".+	c #D2579F",
"++	c #D358A0",
"@+	c #440D42",
"#+	c #4A1241",
"$+	c #EB6594",
"%+	c #DE5E99",
"&+	c #CF73B3",
"*+	c #E96A9A",
"=+	c #F16892",
"-+	c #D1569E",
";+	c #450D42",
">+	c #491141",
",+	c #EE6795",
"'+	c #EC6694",
")+	c #E86495",
"!+	c #D5599D",
"~+	c #D5599C",
"{+	c #DF5E99",
"]+	c #D271AF",
"^+	c #C376BB",
"/+	c #C276BC",
"(+	c #E7689A",
"_+	c #D1579E",
":+	c #D6599C",
"<+	c #E46197",
"[+	c #E66296",
"}+	c #D4589C",
"|+	c #D65A9C",
"1+	c #481142",
"2+	c #E4689A",
"3+	c #E26798",
"4+	c #E66D97",
"5+	c #F68291",
"6+	c #F58291",
"7+	c #EE7894",
"8+	c #E06CA0",
"9+	c #DF6EA4",
"0+	c #E1689A",
"a+	c #E16699",
"b+	c #F58D91",
"c+	c #F58E91",
"d+	c #4D1840",
"e+	c #FF888D",
"f+	c #FF988E",
"g+	c #D57BB1",
"h+	c #B878C2",
"i+	c #F77F96",
"j+	c #FF7F8D",
"k+	c #FFBD8E",
"l+	c #FF7E8D",
"m+	c #4D1F40",
"n+	c #FF998F",
"o+	c #FFA390",
"p+	c #FFCD9C",
"q+	c #FFCC9C",
"r+	c #FFB996",
"s+	c #FF988D",
"t+	c #CC90B9",
"u+	c #A98BCC",
"v+	c #A78BCD",
"w+	c #F5A598",
"x+	c #FFA88E",
"y+	c #FFA78D",
"z+	c #FFE69C",
"A+	c #FFE79C",
"B+	c #4D2241",
"C+	c #FFA88F",
"D+	c #FFB393",
"E+	c #FFE3A5",
"F+	c #F4B99A",
"G+	c #FFFDA5",
"H+	c #FFFEA5",
"I+	c #FFA890",
"J+	c #FFA78F",
"K+	c #FFB493",
"L+	c #FFE3A6",
"M+	c #C59DBF",
"N+	c #9897D5",
"O+	c #F5BA99",
"P+	c #FFFFA5",
"Q+	c #4E2341",
"R+	c #7F4B52",
"S+	c #7E4B52",
"T+	c #A16F62",
"U+	c #FFC693",
"V+	c #FFC593",
"W+	c #E4B5AB",
"X+	c #B49AC9",
"Y+	c #DE8CAE",
"Z+	c #F1859D",
"`+	c #F2849C",
" @	c #BE9CC3",
".@	c #B49FC9",
"+@	c #B29EC9",
"@@	c #FECB94",
"#@	c #FFCC93",
"$@	c #7E5752",
"%@	c #FFBF8F",
"&@	c #DEAFAE",
"*@	c #E389AA",
"=@	c #FF808B",
"-@	c #AE94CB",
";@	c #9996D4",
">@	c #FDBD90",
",@	c #7F5751",
"'@	c #FFC08D",
")@	c #FFBF8C",
"!@	c #DEB0AE",
"~@	c #E287AA",
"{@	c #FF7E8B",
"]@	c #AC94CC",
"^@	c #9696D5",
"/@	c #FFBE8C",
"(@	c #56446C",
"_@	c #A39AD2",
":@	c #A299D1",
"<@	c #CD9EBA",
"[@	c #FCA592",
"}@	c #FEB48F",
"|@	c #FFBC8E",
"1@	c #FCA991",
"2@	c #FDA590",
"3@	c #A0B9CF",
"4@	c #9DB9D0",
"5@	c #CC9DBB",
"6@	c #FFB68E",
"7@	c #FFAA8E",
"8@	c #9AB9D1",
"9@	c #33013A",
"0@	c #9C97D4",
"a@	c #9C97D2",
"b@	c #FFA68F",
"c@	c #FFBF8E",
"d@	c #FFAA8F",
"e@	c #9BB9D1",
"f@	c #4A2E48",
"g@	c #462945",
"h@	c #2F0034",
"i@	c #300034",
"j@	c #687A91",
"k@	c #E2D5B7",
"l@	c #FFE3A4",
"m@	c #C1DED6",
"n@	c #B5DEDD",
"o@	c #CDFFFF",
"p@	c #462946",
"q@	c #E2D5B6",
"r@	c #FFE2A4",
"s@	c #C2DED5",
"                                                                                                                                ",
"                                                                                                                                ",
"                                                                                                                                ",
"                                                    . . . . . . . . . . . .                                                     ",
"                                                    . . . . . . . . . . . .                                                     ",
"                                                    . . . . . . . . . . . .                                                     ",
"                                                    + + + + @ @ @ @ + + + +                                                     ",
"                                            . . . # $ % % & * = = * & % % $ # . . .                                             ",
"                                            . . . # - ; ; > , ' ' , > ; ; - # . . .                                             ",
"                                            . . . # - ; ; > , ' ' , > ; ; - # . . .                                             ",
"                                            ) ! ! ~ { ] ] ^ / ( ( / ^ ] ] { ~ ! ! _                                             ",
"                                      . . : < [ [ } | 1 1 2 3 > > 3 2 1 1 | } [ [ < 4 . .                                       ",
"                                      . . : 5 6 6 7 8 9 9 1 0 ; ; 0 1 9 9 8 7 6 6 5 : . .                                       ",
"                                      . . : 5 6 6 7 8 9 9 1 0 ; ; 0 1 9 9 8 7 6 6 5 : . .                                       ",
"                                    a b b b c d d e f g g h i j j i h g g f e d d c b b b k                                     ",
"                              . . . l m m m n o o p q r r s t t t t s r r q p o o n m m m l . . .                               ",
"                              . . . u ; ; ; v 9 9 1 w ; ; % x t t x % ; ; w 1 9 9 v ; ; ; u . . .                               ",
"                              . . . u ; ; ; v 9 9 1 w ; ; % x t t x % ; ; w 1 9 9 v ; ; ; u . . .                               ",
"                              . . . y z z z A B B C D z z z E F F E z z z D C B B A z z z y . . .                               ",
"                              . . . G 6 6 6 H I I J K 6 6 L M ; ; M L 6 6 K J I I H 6 6 6 G . . .                               ",
"                              . . . G 6 6 6 H I I J K 6 6 L M ; ; M L 6 6 K J I I H 6 6 6 G . . .                               ",
"                              : : : G 6 6 N H I I O P 6 6 L M ; ; M L 6 6 P O I I H N 6 6 G : : :                               ",
"                      Q Q Q R S T T U V V V W X X Y Z V V `  ..... .` V V Z Y X X W V V V U T T S R Q Q Q                       ",
"                      . . . +.@.#.#.$.%.%.%.&.#.#.*.=.%.%.-.;.6 6 ;.-.%.%.=.*.#.#.&.%.%.%.$.#.#.@.+.. . .                       ",
"                      . . . +.@.#.#.$.%.%.%.&.#.#.*.=.%.%.-.;.6 6 ;.-.%.%.=.*.#.#.&.%.%.%.$.#.#.@.+.. . .                       ",
"                      . . . >.,.*.*.$.'.'.).!.~.~.{.].'.'.^./.(.(./.^.'.'.].{.~.~.!.).'.'.$.*.*.,.>.. . .                       ",
"                      . . . _.:.<.<.[.}.}.}.|.1.1.2.3.}.}.4.5.6.6.5.4.}.}.3.2.1.1.|.}.}.}.[.<.<.:._.. . .                       ",
"                      . . . 7.8.9.9.0.#.#.#.a.6 6 6 b.#.#.c.d.9.9.d.c.#.#.b.6 6 6 a.#.#.#.0.9.9.8.7.. . .                       ",
"                      . . . 7.8.9.9.0.#.#.#.a.6 6 6 b.#.#.c.d.9.9.d.c.#.#.b.6 6 6 a.#.#.#.0.9.9.8.7.. . .                       ",
"                      . . . e.8.9.9.0.f.g.g.h.i.i.i.j.g.g.k.l.9.9.l.k.g.g.j.i.i.i.h.g.g.f.0.9.9.8.e.. . .                       ",
"                      . . . m.n.o.o.p.q.q.q.r.s.s.f.t.q.q.u.v.o.o.v.u.q.q.t.f.s.s.r.q.q.q.p.o.o.n.m.. . .                       ",
"                      . . . m.w.x.x.y.z.z.z.A.#.#.g.B.z.z.C.D.x.x.D.C.z.z.B.g.#.#.A.z.z.z.y.x.x.w.m.. . .                       ",
"                      . . . m.w.x.x.y.z.z.z.A.#.#.g.B.z.z.C.D.x.x.D.C.z.z.B.g.#.#.A.z.z.z.y.x.x.w.m.. . .                       ",
"                      E.E.E.F.G.H.H.y.I.I.I.J.K.K.#.L.I.I.z.M.H.H.M.z.I.I.L.#.K.K.J.I.I.I.y.H.H.G.N.O.O.O.                      ",
"              . . . P.Q.n.n.R.S.T.T.U.V.V.V.W.X.X.Y.Z.V.V.V.`.T.T.`.V.V.V.Z.Y.X.X.W.V.V.V.U.T.T.T. +.+.+++@+. . .               ",
"              . . . #+n.x.x.$+`.`.`.%+x.x.x.&+z.z.C.*+x.x.=+-+`.`.-+=+x.x.*+C.z.z.&+x.x.x.%+`.`.`.`.`.`..+;+. . .               ",
"              . . . #+n.x.x.$+`.`.`.%+x.x.x.&+z.z.C.*+x.x.=+-+`.`.-+=+x.x.*+C.z.z.&+x.x.x.%+`.`.`.`.`.`..+;+. . .               ",
"              . . . >+,+'+'+)+!+~+~+{+'+'+'+]+^+^+/+(+'+'+'+~+~+~+~+'+'+'+(+/+^+^+]+'+'+'+{+~+~+~+_+`.`..+;+. . .               ",
"              . . . @+ +T.T.:+=+x.x.<+T.T.T.[+V.V.V.}+T.T.S.x.x.x.x.S.T.T.}+V.V.V.[+T.T.T.<+x.x.=+|+`.`..+;+. . .               ",
"              . . . ;+.+`.`.|+x.x.x.<+`.`.`.[+x.x.x.~+`.`.T.H.x.x.H.T.`.`.~+x.x.x.[+`.`.`.<+x.x.x.|+`.`..+;+. . .               ",
"              . . . ;+.+`.`.|+x.x.x.<+`.`.`.[+x.x.x.~+`.`.T.H.x.x.H.T.`.`.~+x.x.x.[+`.`.`.<+x.x.x.|+`.`..+;+. . .               ",
"              . . . 1+2+3+3+4+5+6+6+7+3+3+3+8+9+9+9+0+3+3+a+b+c+c+b+a+3+3+0+9+9+9+8+3+3+3+7+6+6+5+4+3+3+2+1+. . .               ",
"              . . . d+8.9.9.e+I I I f+9.9.9.g+z.z.h+i+9.9.j+k+9 9 k+j+9.9.i+h+z.z.g+9.9.9.f+I I I e+9.9.8.d+. . .               ",
"              . . . d+8.9.9.e+I I I f+9.9.9.g+z.z.C.i+9.9.l+k+9 9 k+l+9.9.i+C.z.z.g+9.9.9.f+I I I e+9.9.8.d+. . .               ",
"              . . . d+8.9.9.e+I I I f+9.9.9.g+z.z.C.i+9.9.l+k+9 9 k+l+9.9.i+C.z.z.g+9.9.9.f+I I I e+9.9.8.d+. . .               ",
"              . . . m+n+f+f+o+p+q+q+r+f+f+s+t+u+u+v+w+x+x+y+z+A+A+z+y+x+x+w+v+u+u+t+s+f+f+r+q+q+p+o+f+f+n+m+. . .               ",
"              . . . B+C+I I D+E+' ' q+I I I X #.#.{.F+9 9 k+G+H+H+G+k+9 9 F+{.#.#.X I I I q+' ' E+D+I I C+B+. . .               ",
"              . . . B+C+I I D+E+' ' q+I I I X #.#.{.F+9 9 k+G+H+H+G+k+9 9 F+{.#.#.X I I I q+' ' E+D+I I C+B+. . .               ",
"              . . . B+I+J+J+K+L+' ' p+J J J M+*.*.N+O+o o 1 G+P+P+G+1 o o O+N+*.*.M+J J J p+' ' L+K+J+J+I+Q+. . .               ",
"                      R+S+S+T+U+V+V+W+X+X+X+Y+Z+Z+`+ @.@.@+@@@#@#@@@+@.@.@ @`+Z+Z+Y+X+X+X+W+V+V+U+T+S+S+R+                      ",
"                      . . . $@%@9 9 &@#.#.#.*@9.9.=@-@#.#.;@>@9 9 >@;@#.#.-@=@9.9.*@#.#.#.&@9 9 %@$@. . .                       ",
"                      . . . $@%@9 9 &@#.#.#.*@9.9.=@-@#.#.;@>@9 9 >@;@#.#.-@=@9.9.*@#.#.#.&@9 9 %@$@. . .                       ",
"                      . . . ,@'@)@)@!@c.c.c.~@l+l+{@]@c.c.^@k+/@/@k+^@c.c.]@{@l+l+~@c.c.c.!@)@)@'@,@. . .                       ",
"                      . . . (@_@:@:@<@[@[@[@}@|@|@|@1@[@[@2@3@4@4@3@2@[@[@1@|@|@|@}@[@[@[@<@:@:@_@(@. . .                       ",
"                      . . . +.@.#.#.5@I I I 6@9 9 9 7@I I O 8@6 6 8@O I I 7@9 9 9 6@I I I 5@#.#.@.+.. . .                       ",
"                      . . . +.@.#.#.5@I I I 6@9 9 9 7@I I O 8@6 6 8@O I I 7@9 9 9 6@I I I 5@#.#.@.+.. . .                       ",
"                      9@9@9@+.0@a@a@5@b@b@b@6@9 9 c@d@b@b@J e@i.i.e@J b@b@d@c@9 9 6@b@b@b@5@a@a@0@+.9@9@9@                      ",
"                      f@f@f@g@h@i@i@j@7 7 7 k@' ' l@m@n@n@s t o@o@t s n@n@m@l@' ' k@7 7 7 j@i@i@h@g@f@f@f@                      ",
"                      f@f@f@p@. . . G 6 6 6 q@' ' r@s@; ; % x t t x % ; ; s@r@' ' q@6 6 6 G . . . p@f@f@f@                      ",
"                      f@f@f@p@. . . G 6 6 6 q@' ' r@s@; ; % x t t x % ; ; s@r@' ' q@6 6 6 G . . . p@f@f@f@                      ",
"                      f@f@f@p@. . . G 6 6 6 q@' ' r@s@; ; % x t t x % ; ; s@r@' ' q@6 6 6 G . . . p@f@f@f@                      ",
"                                                                                                                                ",
"                                                                                                                                ",
"                                                                                                                                "};
