/* XPM */
static char * object3_xpm[] = {
"64 64 326 2",
"  	c #47352C",
". 	c #46342B",
"+ 	c #48362D",
"@ 	c #48372D",
"# 	c #4B392F",
"$ 	c #4E3C31",
"% 	c #4B3A2F",
"& 	c #514033",
"* 	c #564537",
"= 	c #5A4939",
"- 	c #5E4E3D",
"; 	c #635340",
"> 	c #695944",
", 	c #503F32",
"' 	c #47342C",
") 	c #3E2533",
"! 	c #3F2534",
"~ 	c #402735",
"{ 	c #422A36",
"] 	c #442D37",
"^ 	c #432A36",
"/ 	c #4E3B31",
"( 	c #46342D",
"_ 	c #340539",
": 	c #33003A",
"< 	c #34063A",
"[ 	c #42313B",
"} 	c #839A9D",
"| 	c #8AA2A3",
"1 	c #BAA580",
"2 	c #34083A",
"3 	c #3D2D47",
"4 	c #AED2D2",
"5 	c #B9DDDA",
"6 	c #FCE2A8",
"7 	c #432D30",
"8 	c #402B3A",
"9 	c #6C7E95",
"0 	c #7A8DA3",
"a 	c #D8C8B6",
"b 	c #DFCEB9",
"c 	c #DCDFC4",
"d 	c #3F2937",
"e 	c #3B2547",
"f 	c #8BA8BF",
"g 	c #9DB9D0",
"h 	c #F6BE98",
"i 	c #FCBF92",
"j 	c #BBDCD9",
"k 	c #412C39",
"l 	c #80969A",
"m 	c #95AFB1",
"n 	c #D0B9AF",
"o 	c #DBBDAF",
"p 	c #D9CFBF",
"q 	c #D7D2C3",
"r 	c #C4F0EF",
"s 	c #80979A",
"t 	c #412C3A",
"u 	c #422D2F",
"v 	c #3E2433",
"w 	c #391D41",
"x 	c #9BBBBC",
"y 	c #B8DCDA",
"z 	c #F3C4A1",
"A 	c #FDBE91",
"B 	c #BFD9D5",
"C 	c #B6DEDD",
"D 	c #CBFDFC",
"E 	c #371941",
"F 	c #8BA6B7",
"G 	c #A5C4D4",
"H 	c #F0B3A0",
"I 	c #FCAF91",
"J 	c #AFC3CF",
"K 	c #A2C6D6",
"L 	c #BCE7E6",
"M 	c #41293B",
"N 	c #3D234A",
"O 	c #869CB4",
"P 	c #9FB8CF",
"Q 	c #EDAAA0",
"R 	c #FAA693",
"S 	c #A9B6CB",
"T 	c #9CB9D1",
"U 	c #B4DADB",
"V 	c #442E3D",
"W 	c #4F3E33",
"X 	c #513F33",
"Y 	c #524034",
"Z 	c #3F2633",
"` 	c #37103C",
" .	c #756C9D",
"..	c #9189C0",
"+.	c #D795AA",
"@.	c #ED9AA0",
"#.	c #C39AC0",
"$.	c #B89AC7",
"%.	c #E99AA4",
"&.	c #EC9CA1",
"*.	c #A3BFD2",
"=.	c #38133D",
"-.	c #4D383B",
";.	c #5E4D3C",
">.	c #35083D",
",.	c #8176A9",
"'.	c #A296D1",
").	c #E593A9",
"!.	c #FA9193",
"~.	c #B597C8",
"{.	c #A098D1",
"].	c #F4929A",
"^.	c #F99393",
"/.	c #A2B6CE",
"(.	c #533E3F",
"_.	c #6A5A45",
":.	c #5D4C3C",
"<.	c #38063B",
"[.	c #C5667B",
"}.	c #F68398",
"|.	c #C690BE",
"1.	c #AA97CD",
"2.	c #9CB0D1",
"3.	c #98B5D2",
"4.	c #A89ACE",
"5.	c #AD96CC",
"6.	c #F3889A",
"7.	c #574341",
"8.	c #71604A",
"9.	c #6F5E48",
"0.	c #39053B",
"a.	c #CB6374",
"b.	c #FD808F",
"c.	c #C390C0",
"d.	c #9D97D2",
"e.	c #98B2D2",
"f.	c #97B7D2",
"g.	c #9C9AD2",
"h.	c #A195D1",
"i.	c #FB8192",
"j.	c #594839",
"k.	c #38043B",
"l.	c #C15278",
"m.	c #F06A93",
"n.	c #CC75B4",
"o.	c #B87BC2",
"p.	c #A293D0",
"q.	c #9D98D2",
"r.	c #B67EC4",
"s.	c #BB79C1",
"t.	c #EE6A95",
"u.	c #4B2839",
"v.	c #511644",
"w.	c #C2517A",
"x.	c #EE6893",
"y.	c #CE73B2",
"z.	c #BC78BF",
"A.	c #A590CE",
"B.	c #9F95D2",
"C.	c #BA7BC1",
"D.	c #BF77BE",
"E.	c #EC6895",
"F.	c #C1517A",
"G.	c #4B1245",
"H.	c #533740",
"I.	c #5D4B3C",
"J.	c #5D4D3D",
"K.	c #5A4A3A",
"L.	c #350639",
"M.	c #B64C72",
"N.	c #ED6690",
"O.	c #DD5E98",
"P.	c #D2579D",
"Q.	c #E66397",
"R.	c #ED6995",
"S.	c #C576BA",
"T.	c #E96A9A",
"U.	c #EE6894",
"V.	c #D3589D",
"W.	c #CF569D",
"X.	c #CD559C",
"Y.	c #9E3E7A",
"Z.	c #36083A",
"`.	c #452D37",
" +	c #34013A",
".+	c #B54B74",
"++	c #ED6694",
"@+	c #DF5E99",
"#+	c #D4589C",
"$+	c #E66296",
"%+	c #EC6795",
"&+	c #CB74B5",
"*+	c #C276BC",
"=+	c #E96899",
"-+	c #EC6694",
";+	c #D5599C",
">+	c #D0569E",
",+	c #A03F7C",
"'+	c #3F2634",
")+	c #A03F7B",
"!+	c #D1579E",
"~+	c #E36197",
"{+	c #EF6793",
"]+	c #DB5C9A",
"^+	c #E96596",
"/+	c #D4599C",
"(+	c #EE6793",
"_+	c #A84779",
":+	c #DB619B",
"<+	c #E96F95",
"[+	c #F37892",
"}+	c #E36898",
"|+	c #E4699C",
"1+	c #E66B9D",
"2+	c #DC629B",
"3+	c #DB629A",
"4+	c #F27E92",
"5+	c #3D2433",
"6+	c #C15E70",
"7+	c #FE7F8E",
"8+	c #FE978E",
"9+	c #FFA48E",
"0+	c #FE8C8E",
"a+	c #FC7F8F",
"b+	c #CB79B7",
"c+	c #BE78BF",
"d+	c #F87E94",
"e+	c #FE828E",
"f+	c #FFBA8E",
"g+	c #34023A",
"h+	c #C16970",
"i+	c #FF8E8E",
"j+	c #FFAA92",
"k+	c #FFBB95",
"l+	c #FF9E90",
"m+	c #FD8D8F",
"n+	c #C485BD",
"o+	c #B483C6",
"p+	c #F89595",
"q+	c #FF998E",
"r+	c #FFD295",
"s+	c #C17C70",
"t+	c #FFA68E",
"u+	c #FFCC9C",
"v+	c #FFE0A4",
"w+	c #FDA590",
"x+	c #B69AC7",
"y+	c #A198D1",
"z+	c #F7B997",
"A+	c #FFC08F",
"B+	c #FFFAA4",
"C+	c #9C635C",
"D+	c #CB8375",
"E+	c #EBB88E",
"F+	c #FED39C",
"G+	c #E8B3A9",
"H+	c #DDA0AF",
"I+	c #D092B8",
"J+	c #CD8FBA",
"K+	c #DCACB0",
"L+	c #DEB1AE",
"M+	c #FDE49D",
"N+	c #402634",
"O+	c #3E143C",
"P+	c #CB9675",
"Q+	c #FEBE90",
"R+	c #C3A5C0",
"S+	c #A197D1",
"T+	c #EF859F",
"U+	c #FC8190",
"V+	c #AB95CD",
"W+	c #A199D1",
"X+	c #FBBD93",
"Y+	c #503F33",
"Z+	c #370A3C",
"`+	c #AC8891",
" @	c #D7ADB3",
".@	c #D4A3B5",
"+@	c #D49EB6",
"@@	c #F7A097",
"#@	c #FEA18F",
"$@	c #D89FB3",
"%@	c #D29FB6",
"&@	c #D6BAB3",
"*@	c #7F76AA",
"=@	c #9F97D2",
"-@	c #E6A1A8",
";@	c #FFA78E",
">@	c #FFB98E",
",@	c #FFBD8E",
"'@	c #FFA98E",
")@	c #FCA791",
"!@	c #645441",
"~@	c #685743",
"{@	c #442C38",
"]@	c #402143",
"^@	c #645782",
"/@	c #786F9E",
"(@	c #BC9FAE",
"_@	c #D4B1B4",
":@	c #F7CBA0",
"<@	c #FED19B",
"[@	c #E2C6B8",
"}@	c #DCC6BD",
"|@	c #B7DFE8",
"1@	c #49323C",
"2@	c #4A2E48",
"3@	c #3D1C40",
"4@	c #371641",
"5@	c #829CB4",
"6@	c #9BBAD1",
"7@	c #EFDBAF",
"8@	c #FDE2A7",
"9@	c #BFDED7",
"0@	c #B7DEDD",
"a@	c #635240",
"b@	c #483335",
"c@	c #432B37",
"d@	c #402938",
"e@	c #6A7786",
"f@	c #7A8C9C",
"g@	c #B5A483",
"h@	c #BFA97D",
"i@	c #93A6A0",
"j@	c #8DA6A4",
"k@	c #9BBDBB",
"                                                                                                                                ",
"                                                                                                                                ",
"                                                                                                                                ",
"                                                                                                                                ",
"                                                                                                                                ",
"                                                                                                                                ",
"                                                                                                                                ",
"                                                                . . . .                                                         ",
"                                                        . + . . . . . . .                                                       ",
"                                                        + . + @ + # #   @ .                                                     ",
"                                                        . + # # $ $ $ $ # @ . .                                                 ",
"                                                    . . . # % & * = = * & # # .                                                 ",
"                                                      . .   $ * - ; ; - * $ @ . .                                               ",
"                                                      . . + $ = ; > > ; = & @ . .                                               ",
"                                                      . . # , = ; > > ; = $ # . .                                               ",
"                                                      . . + $ * - ; ; - * $ @ . .                                               ",
"                                                      '   + % & * = = * , $                                                     ",
"                                                        ' ) ! ~ { ] ^ / # +                                                     ",
"                                                        ( _ : : : : < (                                                         ",
"                                                    ' ) [ } | 1 1 | } [ ) '                                                     ",
"                                                    ( 2 3 4 5 6 6 5 4 3 2 (                                                     ",
"                                                  7 8 9 0 a b c c b a 0 9 8 7                                                   ",
"                                                  d e f g h i j j i h g f e d                 .                                 ",
"                                              7 k l m n o p q r r q p o n m s t u . . . . . . .                                 ",
"                                              v w x y z A B C D D C B A z y x w ! . . + . . . .                                 ",
"                                              v E F G H I J K L L K J I H G F E ! + + + + + # + +                               ",
"                                            ( M N O P Q R S T U U T S R Q P O N V W X Y Y Y & $ # #                             ",
"                                          Z `  ...+.@.#.$.%.&.*.*.&.%.$.#.@.+... .=.-.;.;.;.= * $ # +                           ",
"                                          v >.,.'.).!.~.{.].^././.^.].{.~.!.).'.,.>.(._.> > ; :.* $ # . .                       ",
"                                          v <.[.}.|.1.2.3.4.5.6.6.5.4.3.2.1.|.}.[.<.7.8.8.9._.; = $ @ . .                       ",
"                                          v 0.a.b.c.d.e.f.g.h.i.i.h.g.f.e.d.c.b.a.0.7.8.8.9._.; j.& # . .                       ",
"                                          v k.l.m.n.o.p.q.r.s.t.t.s.r.q.p.o.n.m.l.k.(.> > > ; :.* $ . . .                       ",
"                                      ' ( u.v.w.x.y.z.A.B.C.D.E.E.D.C.B.A.z.y.x.F.G.H.I.J.;.K.* & # @                           ",
"                                      ) L.M.N.O.P.Q.R.S.s.T.U.V.V.U.T.s.S.R.Q.P.W.X.Y.Z.`.& $ $ $                               ",
"                                      v  +.+++@+#+$+%+&+*+=+-+;+;+-+=+*+&+%+$+#+P.>+,+ +'+  #                                   ",
"                                      v  +)+!+~+{+]+P.^+U./+P.(+(+P./+U.^+P.]+{+~+>+,+ +v . .                                   ",
"                                      v  +_+:+<+[+}+:+|+1+2+3+4+4+3+2+1+|+:+}+[+<+:+_+ +5+. . .                                 ",
"                                      v  +6+7+8+9+0+a+b+c+d+e+f+f+e+d+c+b+a+0+9+8+7+6+ +v                                       ",
"                                      v g+h+i+j+k+l+m+n+o+p+q+r+r+q+p+o+n+m+l+k+j+i+h+g+v                                       ",
"              ' . . . . . . . .       v g+s+t+u+v+k+w+x+y+z+A+B+B+A+z+y+x+w+k+v+u+t+s+g+v                                       ",
"                    .   . . .         7 ) C+D+E+F+G+H+I+J+K+L+M+M+L+K+J+I+H+G+F+E+D+C+) 7                                       ",
"                + + + + + + # +           N+O+P+Q+R+S+T+U+V+W+X+X+W+V+U+T+S+R+Q+P+O+N+                                          ",
"            + # $ Y+Y Y+Y Y & $ $         v Z+`+ @.@+@@@#@$@%@&@&@%@$@#@@@+@.@ @`+Z+v                                           ",
"      '     $ $ * = ;.;.;.;.= * $ $       v >.*@=@-@;@>@,@'@)@P P )@'@,@>@;@-@=@*@>.v                                           ",
"      .     $ * ;.!@~@> > > !@;.* $   .   {@]@^@/@(@_@:@<@[@}@|@|@}@[@<@:@_@(@/@^@]@{@                                          ",
"      . . # $ j.!@> 8.8.8.9._.; j.$ # . . 1@2@3@4@5@6@7@8@9@0@D D 0@9@8@7@6@5@4@3@2@1@                                          ",
"    . . . @ & j.a@> 9.8.8.9._.; j.$ # . . b@1@c@d@e@f@g@h@i@j@k@k@j@i@h@g@f@e@d@c@1@b@                                          ",
"    . . . @ $ * ;.!@~@> > > ; :.* $   . .                                                                                       ",
"          # # & * = ;.;.;.:.K.* $ # @                                                                                           ",
"              # $ & & Y Y & & $ # #                                                                                             ",
"                  @ #   @   @                                                                                                   ",
"                  . . .                                                                                 . . . .                 ",
"                . . . .   . . .                                                                           . . .                 ",
"                                                                                                        @ @ @ @                 ",
"                                                                                                    # # $ $ & $ $               ",
"                                                                                                    # & * = = * $ $             ",
"                                                                                              . . @ $ * - ; ; - * $ @ . .       ",
"                                                                                              . . @ $ = ; > > ; = & @ . .       ",
"                                                                                              . . # & = ; > > ; = $ # . .       ",
"                                                                                              . . @ $ * - ; ; - * $ @ . .       ",
"                                                                                                . @ % & * = = * & #             ",
"                                                                                                .   # % $ $ $ $ # #             ",
"                                                                                                    .   @ # @ @                 ",
"                                                                                                        . . . .                 "};
