/* XPM */
static char *char_up[] = {
/* columns rows colors chars-per-pixel */
"64 64 37 1 ",
"  c #181818",
". c #46342B",
"X c #46342C",
"o c #47342C",
"O c #47352C",
"+ c #48362D",
"@ c #48372D",
"# c #49372D",
"$ c #49372E",
"% c #4B392F",
"& c #4B3A2F",
"* c #4E3C31",
"= c #4F3E32",
"- c #503F32",
"; c #503F33",
": c #514033",
"> c #524034",
", c #564536",
"< c #564537",
"1 c #594839",
"2 c #5A4939",
"3 c #5A4A3A",
"4 c #5D4C3C",
"5 c #5E4D3C",
"6 c #5E4E3D",
"7 c #635240",
"8 c #635340",
"9 c #645441",
"0 c #685743",
"q c #695944",
"w c #6A5945",
"e c #6A5A45",
"r c #6F5E48",
"t c #71604A",
"y c #885038",
"u c #D08860",
"i c #F8D098",
/* pixels */
"OOOOOOOOOOOOOOOOOOOOOOOOOOOOOOOOOOOOOOOOOOOOOOOOOOOOOOOOOOOOOOOO",
"OOOOOOOOOOOOOOOOOOOOOOOOOOOOOOOOOOOOOOOOOOOOOOOOOOOOOOOOOOOOOOOO",
"OOOOOOOOOOOOOOOOOOOOOOOOOOOOOOOOOOOOOOOOOOOOOOOOOOOOOOOOOOOOOOOO",
"OOOOOOOOOOOOOOOOOOOOOOOOOOOOOOOOOOOOOOOOOOOOOOOOOOOOOOOOOOOOOOOO",
"OOOOOOOOOOOOOOOOOOOOOOOOOOOOOOOOOOOOOOOOOOOOOOOOOOOOOOOOOOOOOOOO",
"OOOOOOOOOOOOOOOOOOOOOOOOOOOOOOOOOOOOOOOOOOOOOOOOOOOOOOOOOOOOOOOO",
"OOOOOOOOOOOOOOOOOOOOOOOOOOOOOOOOOOOOOOOOOOOOOOOOOOOOOOOOOOOOOOOO",
"OOOOOOOOOOOOOOOOOOOOOOOOOOOOOOOO....OOOOOOOOOOOOOOOOOOOOOOOOOOOO",
"OOOOOOOOOOOOOOOOOOOOOOOOOOOO+.+.....OOOOOOOOOOOOOOOOOOOOOOOOOOOO",
"OOOOOOOOOOOOOOOOOOOOOOOOOOOO.+..+++%O.OOOOOOOOOOOOOOOOOOOOOOOOOO",
"OOOOOOOOOOOOOOOOOOOOOOOOOOOO+.%%&===&%O.OOOOOOOOOOOOOOOOOOOOOOOO",
"OOOOOOOOOOOOOOOOOOOOOOOOOOO..%%-,11<:&+.OOOOOOOOOOOOOOOOOOOOOOOO",
"OOOOOOOOOOOOOOOOOOOOOOOOOOO..O=<6986<=%..OOOOOOOOOOOOOOOOOOOOOOO",
"OOOOOOOOOOOOOOOOOOOOOOOOOOO..%=28qq82-+..OOOOOOOOOOOOOOOOOOOOOOO",
"OOOOOOOOOOOOOOOOOOOOOOOOOOO..+=28qq82=+..OOOOOOOOOOOOOOOOOOOOOOO",
"OOOOOOOOOOOOOOOOOOOOOOOOOOO..O=<6886<*+..OOOOOOOOOOOOOOOOOOOOOOO",
"OOOOOOOOOOOOOOOOOOOOOOOOOOOOO+%:<22<-&++o.+.+.+.OOOOOOOOOOOOOOOO",
"OOOOOOOOOOOOOOOOOOOOOOOOOOOOOuuyyyy**+..++.+.+.+OOOOOOOOOOOOOOOO",
"OOOOOOOOOOOOOOOOOOOOOOOOOOOOuuiiiiuy+..+.++.+.+.OOOOOOOOOOOOOOOO",
"OOOOOOOOOOOOOOOOOOOOOOOOOOOuuiiiiiiuy++.+..+.+.+OOOOOOOOOOOOOOOO",
"OOOOOOOOOOOOOOOOOOOOOOOOOOOuuiiiiiiuy+.+.+.++.+.OOOOOOOOOOOOOOOO",
"OOOOOOOOOOOOOOOOOOOOOOOOOOOyuiiiiiiuy.+.+.+..+.+OOOOOOOOOOOOOOOO",
"OOOOOOOOOOOOOOOOOOOOOOOOOOuyuiiiiiiuyy.++..++..+OOOOOOOOOOOOOOOO",
"OOOOOOOOOOOOOOOOOOOOOOOOOOuyuuiiiiiuyu+.........OOOOOOOOOOOOOOOO",
"OOOOOOOOOOOOOOOOOOOOOOOOOOyyuuuuiiuuyu.+o..oo..oOOOOOOOOOOOOOOOO",
"OOOOOOOOOOOOOOOOOOOOOOOOOO yyuuuuuuy y.++++++++++OOOOOOOOOOOOOOO",
"OOOOOOOOOOOOOOOOOOOOOOOOOOO yyuuuuy  O+&*-;;>:--&+OOOOOOOOOOOOOO",
"OOOOOOOOOOOOOOOOOOOOOOOOOOO  yuuuy  OO*-1256652,-&+OoOOOOOOOOOOO",
"OOOOOOOOOOOOOOOOOOOOOOOOOO uuiiuuu ..+=<590we095<*+..OOOOOOOOOOO",
"OOOOOOOOOOOOOOOOOOOOOOOOO uuuiiiiiyy.+=17erttre71-+..OOOOOOOOOOO",
"OOOOOOOOOOOOOOOOOOOOOOOOO uuuiiiiiiiy%=17erttre7,-+O.OOOOOOOOOOO",
"OOOOOOOOOOOOOOOOOOOOOOOO uuuyuiiiuiiy+&<590ee096,-O..OOOOOOOOOOO",
"OOOOOOOOOOOOOOOOOOOOOOOO uyy uiiuyuiiy&-,226622<;%OOoOOOOOOOOOOO",
"OOOOOOOOOOOOOOOOOOOOOOOO yy yuiiuyuiiy+&-->,,;-**OOOOOOOOOOOOOOO",
"OOOOOOOOOOOOOOOOOOOOOOOOO   yuiiiyuuuyO++++++++++OOOOOOOOOOOOOOO",
"OOOOOOOOOOOOOOOOOOOOOOOOOOO uiiiiyuuiyOO.OO.o..oOOOOOOOOOOOOOOOO",
"OOOOOOOOOOOOOOOOOOOOOOOOOOO uiiuuuuiiyOo........OOOOOOOOOOOOOOOO",
"OOOOOOOOOOOOOOOOOOOOOOOOOOOyiuuyuu yyyOOOOOOOOOOOOOOOOOOOOOOOOOO",
"OOOOOOOOOOOOOOOOOOOOOOOOOOOyiiiyyyy OOOOOOOOOOOOOOOOOOOOOOOOOOOO",
"OOOOOOOo........oOOOOOOOOOOyiiiyyy  OOOOOOOOOOOOOOOOOOOOOOOOOOOO",
"OOOOOOOOo..oo..oOOOOOOOOOOOyuiiy   OOOOOOOOOOOOOOOOOOOOOOOOOOOOO",
"OOOOOOO++++++++++OOOOOOOOO yuuuu OOOOOOOOOOOOOOOOOOOOOOOOOOOOOOO",
"OOOOOO+&*-;;>:--%++OOOOOO yuuiiu OOOOOOOOOOOOOOOOOOOOOOOOOOOOOOO",
"OOOoOO*-1256652,-%+OOOOOO yuiiiu OOOOOOOOOOOOOOOOOOOOOOOOOOOOOOO",
"OOO..+=<590we095<=+..OOOOO yuiiu OOOOOOOOOOOOOOOOOOOOOOOOOOOOOOO",
"OOO..+=19erttre8,=%..OOOOOO      OOOOOOOOOOOOOOOOOOOOOOOOOOOOOOO",
"OOO.O+=19erttre82=+..OOOOOOOOOOOOOOOOOOOOOOOOOOOOOOOOOOOOOOOOOOO",
"OOO.O+&<290ww075<=+..OOOOOOOOOOOOOOOOOOOOOOOOOOOOOOOOOOOOOOOOOOO",
"OOOOO+&-,226641<-&+OOOOOOOOOOOOOOOOOOOOOOOOOOOOOOOOOOOOOOOOOOOOO",
"OOOOOO+&---,;,-*&++OOOOOOOOOOOOOOOOOOOOOOOOOOOOOOOOOOOOOOOOOOOOO",
"OOOOOOOO+++++++++OOOOOOOOOOOOOOOOOOOOOOOOOOOOOOOOOOO.O..OOOOOOOO",
"OOOOOOOOo.O.O.ooOOOOOOOOOOOOOOOOOOOOOOOOOOOOOOOOOOOo....OOOOOOOO",
"OOOOOOOo........OOOOOOOOOOOOOOOOOOOOOOOOOOOOOOOOOOOOO...OOOOOOOO",
"OOOOOOOOOOOOOOOOOOOOOOOOOOOOOOOOOOOOOOOOOOOOOOOOOOOO%+%O+OOOOOOO",
"OOOOOOOOOOOOOOOOOOOOOOOOOOOOOOOOOOOOOOOOOOOOOOOOOO+%*==**OOOOOOO",
"OOOOOOOOOOOOOOOOOOOOOOOOOOOOOOOOOOOOOOOOOOOOOOOOO+*-<22<:%OOOOOO",
"OOOOOOOOOOOOOOOOOOOOOOOOOOOOOOOOOOOOOOOOOOOOOOO..%&<6886<=O..OOO",
"OOOOOOOOOOOOOOOOOOOOOOOOOOOOOOOOOOOOOOOOOOOOOOO..+:18qq82=%...OO",
"OOOOOOOOOOOOOOOOOOOOOOOOOOOOOOOOOOOOOOOOOOOOOOO..O=18qq82=O..OOO",
"OOOOOOOOOOOOOOOOOOOOOOOOOOOOOOOOOOOOOOOOOOOOOOO..@=<6885<=O..OOO",
"OOOOOOOOOOOOOOOOOOOOOOOOOOOOOOOOOOOOOOOOOOOOOOOO.%%:<22<:%+OOOOO",
"OOOOOOOOOOOOOOOOOOOOOOOOOOOOOOOOOOOOOOOOOOOOOOOO.O@%&===%%OOOOOO",
"OOOOOOOOOOOOOOOOOOOOOOOOOOOOOOOOOOOOOOOOOOOOOOOO%..%@%@%O.OOOOOO",
"OOOOOOOOOOOOOOOOOOOOOOOOOOOOOOOOOOOOOOOOOOOOOO..........OOOOOOOO"
};