/* XPM */
static char *char_right[] = {
/* columns rows colors chars-per-pixel */
"64 64 38 1 ",
"  c #181818",
". c #46342B",
"X c #46342C",
"o c #47342C",
"O c #47352C",
"+ c #48362D",
"@ c #48372D",
"# c #49372D",
"$ c #49372E",
"% c #4B392F",
"& c #4B3A2F",
"* c #4E3C31",
"= c #4F3E32",
"- c #503F32",
"; c #503F33",
": c #514033",
"> c #524034",
", c #564536",
"< c #564537",
"1 c #594839",
"2 c #5A4939",
"3 c #5A4A3A",
"4 c #5D4C3C",
"5 c #5E4D3C",
"6 c #5E4E3D",
"7 c #635240",
"8 c #635340",
"9 c #645441",
"0 c #685743",
"q c #695944",
"w c #6A5945",
"e c #6A5A45",
"r c #6F5E48",
"t c #71604A",
"y c #885038",
"u c #D08860",
"i c #F8D098",
"p c #F8F0E0",
/* pixels */
"OOOOOOOOOOOOOOOOOOOOOOOOOOOOOOOOOOOOOOOOOOOOOOOOOOOOOOOOOOOOOOOO",
"OOOOOOOOOOOOOOOOOOOOOOOOOOOOOOOOOOOOOOOOOOOOOOOOOOOOOOOOOOOOOOOO",
"OOOOOOOOOOOOOOOOOOOOOOOOOOOOOOOOOOOOOOOOOOOOOOOOOOOOOOOOOOOOOOOO",
"OOOOOOOOOOOOOOOOOOOOOOOOOOOOOOOOOOOOOOOOOOOOOOOOOOOOOOOOOOOOOOOO",
"OOOOOOOOOOOOOOOOOOOOOOOOOOOOOOOOOOOOOOOOOOOOOOOOOOOOOOOOOOOOOOOO",
"OOOOOOOOOOOOOOOOOOOOOOOOOOOOOOOOOOOOOOOOOOOOOOOOOOOOOOOOOOOOOOOO",
"OOOOOOOOOOOOOOOOOOOOOOOOOOOOOOOOOOOOOOOOOOOOOOOOOOOOOOOOOOOOOOOO",
"OOOOOOOOOOOOOOOOOOOOOOOOOOOOOOOO....OOOOOOOOOOOOOOOOOOOOOOOOOOOO",
"OOOOOOOOOOOOOOOOOOOOOOOOOOOO+.+.....OOOOOOOOOOOOOOOOOOOOOOOOOOOO",
"OOOOOOOOOOOOOOOOOOOOOOOOOOOO.+..+++%O.OOOOOOOOOOOOOOOOOOOOOOOOOO",
"OOOOOOOOOOOOOOOOOOOOOOOOOOOO+.%%&===&%O.OOOOOOOOOOOOOOOOOOOOOOOO",
"OOOOOOOOOOOOOOOOOOOOOOOOOOO..%%-,11<:&+.OOOOOOOOOOOOOOOOOOOOOOOO",
"OOOOOOOOOOOOOOOOOOOOOOOOOOO..O=<6986<=%..OOOOOOOOOOOOOOOOOOOOOOO",
"OOOOOOOOOOOOOOOOOOOOOOOOOOO..%=28qq82-+..OOOOOOOOOOOOOOOOOOOOOOO",
"OOOOOOOOOOOOOOOOOOOOOOOOOOO..+=28qq82=+..OOOOOOOOOOOOOOOOOOOOOOO",
"OOOOOOOOOOOOOOOOOOOOOOOOOOO..O=<6886<*+..OOOOOOOOOOOOOOOOOOOOOOO",
"OOOOOOOOOOOOOOOOOOOOOOOOOOOOO+%:<22<-&++o.+.+.+.OOOOOOOOOOOOOOOO",
"OOOOOOOOOOOOOOOOOOOOOOOOOOOOOyyuuyy**+..++.+.+.+OOOOOOOOOOOOOOOO",
"OOOOOOOOOOOOOOOOOOOOOOOOOOOyyuiiiiiuy..+.++.+.+.OOOOOOOOOOOOOOOO",
"OOOOOOOOOOOOOOOOOOOOOOOOOOOyuiiiiiiiuy+.+..+.+.+OOOOOOOOOOOOOOOO",
"OOOOOOOOOOOOOOOOOOOOOOOOOOyuiiiiiiiiiy.+.+.++.+.OOOOOOOOOOOOOOOO",
"OOOOOOOOOOOOOOOOOOOOOOOOOOyuuuiiiiiiiy+.+.+..+.+OOOOOOOOOOOOOOOO",
"OOOOOOOOOOOOOOOOOOOOOOOOOOyuuyyuiiiiiy.++..++..+OOOOOOOOOOOOOOOO",
"OOOOOOOOOOOOOOOOOOOOOOOOOO uyiiyuuiiuy+.........OOOOOOOOOOOOOOOO",
"OOOOOOOOOOOOOOOOOOOOOOOOOO y iuiuyyuu +.o..oo..oOOOOOOOOOOOOOOOO",
"OOOOOOOOOOOOOOOOOOOOOOOOOOO  yiiup iu +++++++++++OOOOOOOOOOOOOOO",
"OOOOOOOOOOOOOOOOOOOOOOOOOOO   uiup iiy+&*-;;>:--&+OOOOOOOOOOOOOO",
"OOOOOOOOOOOOOOOOOOOOOOOOOOOO  yuuuiiiy&-1256652,-&+OoOOOOOOOOOOO",
"OOOOOOOOOOOOOOOOOOOOOOOOOOOOO  yyuiiuy*<590we095<*+..OOOOOOOOOOO",
"OOOOOOOOOOOOOOOOOOOOOOOOOOOOOyy  yyyy+-17erttre71-+..OOOOOOOOOOO",
"OOOOOOOOOOOOOOOOOOOOOOOOOOOOyiiy   ..+-17erttre7,-+O.OOOOOOOOOOO",
"OOOOOOOOOOOOOOOOOOOOOOOOOOOyuii yuy..+*,590ee096,-O..OOOOOOOOOOO",
"OOOOOOOOOOOOOOOOOOOOOOOOOOOyiiu uu yO+&-,246662<-&++oOOOOOOOOOOO",
"OOOOOOOOOOOOOOOOOOOOOOOOOOyuiiyyuu yyO+&--;;;;-*&+OOOOOOOOOOOOOO",
"OOOOOOOOOOOOOOOOOOOOOOOOOOyuuu yuy yyO++++++%++++OOOOOOOOOOOOOOO",
"OOOOOOOOOOOOOOOOOOOOOOOOOOyuii yyy   OOO..O.ooOoOOOOOOOOOOOOOOOO",
"OOOOOOOOOOOOOOOOOOOOOOOOOO uui yuu OOOOo........oOOOOOOOOOOOOOOO",
"OOOOOOOOOOOOOOOOOOOOOOOOOO yuuyyuuyOOOOOOOOOOOOOOOOOOOOOOOOOOOOO",
"OOOOOOOOOOOOOOOOOOOOOOOOOOO   yuuuuyOOOOOOOOOOOOOOOOOOOOOOOOOOOO",
"OOOOOOOo........oOOOOOOOOOOyy yuuiiyOOOOOOOOOOOOOOOOOOOOOOOOOOOO",
"OOOOOOOOo..O..ooOOOOOOOOOOyyyy yuiiuyOOOOOOOOOOOOOOOOOOOOOOOOOOO",
"OOOOOOOO+++++++++OOOOOOOOOyyyy  uuiuyOOOOOOOOOOOOOOOOOOOOOOOOOOO",
"OOOOOO+**---,;-*%OOOOOOOOO yyy  uuuuyOOOOOOOOOOOOOOOOOOOOOOOOOOO",
"OOOoOO%=12466221-*OOOOOOOO  yyy uuiiuyOOOOOOOOOOOOOOOOOOOOOOOOOO",
".+..O+=<590ee095<=+.oOOOO       uiiiiuyOOOOOOOOOOOOOOOOOOOOOOOOO",
"+.+..+=27erttre7<=%..OOOOOOOOO         OOOOOOOOOOOOOOOOOOOOOOOOO",
".+...%=17erttrq72=+O.OOOOOOOOOOOOOOOOOOOOOOOOOOOOOOOOOOOOOOOOOOO",
"+....+&<590ee075<=O..OOOOOOOOOOOOOOOOOOOOOOOOOOOOOOOOOOOOOOOOOOO",
".+.+++%-<246662<-*OOOOOOOOOOOOOOOOOOOOOOOOOOOOOOOOOOOOOOOOOOOOOO",
"+.+..++&=:-,;;-*&+OOOOOOOOOOOOOOOOOOOOOOOOOOOOOOOOOOOOOOOOOOOOOO",
".+.++.+++++++++++OOOOOOOOOOOOOOOOOOOOOOOOOOOOOOOOOOOOOOOOOOOOOOO",
"+.+..+......+..+OOOOOOOOOOOOOOOOOOOOOOOOOOOOOOOOOOOo....oOOOOOOO",
".+.+.+.+........OOOOOOOOOOOOOOOOOOOOOOOOOOOOOOOOOOOOO.O.OOOOOOOO",
"+.+.+.+.+.+..++.OOOOOOOOOOOOOOOOOOOOOOOOOOOOOOOOOOO++++++OOOOOOO",
".+.+.+.+.+.+.+.+OOOOOOOOOOOOOOOOOOOOOOOOOOOOOOOOOO+&----&+OOOOOO",
"+.+.+.+.+.+.+.+.OOOOOOOOOOOOOOOOOOOOOOOOOOOOOOOOO+&:<1,,:&+OoOOO",
".+.+.+.+.+.+.+.+OOOOOOOOOOOOOOOOOOOOOOOOOOOOOOO..O&<6876,-+O.OOO",
"+.+.+.+.+.+.+.+.OOOOOOOOOOOOOOOOOOOOOOOOOOOOOOO..%:18qq71=+..OOO",
".+.+.+.+.+.+.+.+OOOOOOOOOOOOOOOOOOOOOOOOOOOOOOO..#=18qq72-+..OOO",
"+.+.+.+.+.+.+.+.OOOOOOOOOOOOOOOOOOOOOOOOOOOOOOO..#=<6876<*+..OOO",
".+.+.+.+.+.+.+.+OOOOOOOOOOOOOOOOOOOOOOOOOOOOOOOO.%%:,22<:&+OOOOO",
"+.+.+.+.+.+.+.+.OOOOOOOOOOOOOOOOOOOOOOOOOOOOOOOOOO#%&-:-&+OOOOOO",
".+.+.+.+.+.+.+.+OOOOOOOOOOOOOOOOOOOOOOOOOOOOOOOO.%.#O#+O+OOOOOOO",
"+.+.+.+.+.+.+.+.OOOOOOOOOOOOOOOOOOOOOOOOOOOOOOO......OOOOOOOOOOO"
};
