/* XPM */
static char *char_left[] = {
/* columns rows colors chars-per-pixel */
"64 64 38 1 ",
"  c #181818",
". c #46342B",
"X c #46342C",
"o c #47342C",
"O c #47352C",
"+ c #48362D",
"@ c #48372D",
"# c #49372D",
"$ c #49372E",
"% c #4B392F",
"& c #4B3A2F",
"* c #4E3C31",
"= c #4F3E32",
"- c #503F32",
"; c #503F33",
": c #514033",
"> c #524034",
", c #564536",
"< c #564537",
"1 c #594839",
"2 c #5A4939",
"3 c #5A4A3A",
"4 c #5D4C3C",
"5 c #5E4D3C",
"6 c #5E4E3D",
"7 c #635240",
"8 c #635340",
"9 c #645441",
"0 c #685743",
"q c #695944",
"w c #6A5945",
"e c #6A5A45",
"r c #6F5E48",
"t c #71604A",
"y c #885038",
"u c #D08860",
"i c #F8D098",
"p c #F8F0E0",
/* pixels */
"OOOOOOOOOOOOOOOOOOOOOOOOOOOOOOOOOOOOOOOOOOOOOOOOOOOOOOOOOOOOOOOO",
"OOOOOOOOOOOOOOOOOOOOOOOOOOOOOOOOOOOOOOOOOOOOOOOOOOOOOOOOOOOOOOOO",
"OOOOOOOOOOOOOOOOOOOOOOOOOOOOOOOOOOOOOOOOOOOOOOOOOOOOOOOOOOOOOOOO",
"OOOOOOOOOOOOOOOOOOOOOOOOOOOOOOOOOOOOOOOOOOOOOOOOOOOOOOOOOOOOOOOO",
"OOOOOOOOOOOOOOOOOOOOOOOOOOOOOOOOOOOOOOOOOOOOOOOOOOOOOOOOOOOOOOOO",
"OOOOOOOOOOOOOOOOOOOOOOOOOOOOOOOOOOOOOOOOOOOOOOOOOOOOOOOOOOOOOOOO",
"OOOOOOOOOOOOOOOOOOOOOOOOOOOOOOOOOOOOOOOOOOOOOOOOOOOOOOOOOOOOOOOO",
"OOOOOOOOOOOOOOOOOOOOOOOOOOOOOOOO....OOOOOOOOOOOOOOOOOOOOOOOOOOOO",
"OOOOOOOOOOOOOOOOOOOOOOOOOOOO.+.......OOOOOOOOOOOOOOOOOOOOOOOOOOO",
"OOOOOOOOOOOOOOOOOOOOOOOOOOOO+.+@+%%O@.OOOOOOOOOOOOOOOOOOOOOOOOOO",
"OOOOOOOOOOOOOOOOOOOOOOOOOOOO.+%%****%@..OOOOOOOOOOOOOOOOOOOOOOOO",
"OOOOOOOOOOOOOOOOOOOOOOOOOO...%&:<22<:%%.OOOOOOOOOOOOOOOOOOOOOOOO",
"OOOOOOOOOOOOOOOOOOOOOOOOOOO..O*<6886<*@..OOOOOOOOOOOOOOOOOOOOOOO",
"OOOOOOOOOOOOOOOOOOOOOOOOOOO..+*28qq82:@..OOOOOOOOOOOOOOOOOOOOOOO",
"OOOOOOOOOOOOOOOOOOOOOOOOOOO..%-28qq82*%..OOOOOOOOOOOOOOOOOOOOOOO",
"OOOOOOOOOOOOOOOOOOOOOOOOOOO..+*<6886<*@..OOOOOOOOOOOOOOOOOOOOOOO",
"OOOOOOOOOOOOOOOOOOOOOOOOOOOOO+&:<22<:%+OOOOOOOOOOOOOOOOOOOOOOOOO",
"OOOOOOOOOOOOOOOOOOOOOOOOOOOOOO+%****%+OOOOOOOOOOOOOOOOOOOOOOOOOO",
"OOOOOOOOOOOOOOOOOOOOOOOOOOOOOyyuuyy%+OOOOOOOOOOOOOOOOOOOOOOOOOOO",
"OOOOOOOOOOOOOOOOOOOOOOOOOOOyuiiiiiuyyOOOOOOOOOOOOOOOOOOOOOOOOOOO",
"OOOOOOOOOOOOOOOOOOOOOOOOOOyuiiiiiiiuyOOOOOOOOOOOOOOOOOOOOOOOOOOO",
"OOOOOOOOOOOOOOOOOOOOOOOOOOyiiiiiiiiiuyOOOOOOOOOOOOOOOOOOOOOOOOOO",
"OOOOOOOOOOOOOOOOOOOOOOOOOOyiiiiiiiuuuyOOOOOOOOO.OOOOOOOOOOOOOOOO",
"OOOOOOOOOOOOOOOOOOOOOOOOOOyiiiiiuyyuuyOX........OOOOOOOOOOOOOOOO",
"OOOOOOOOOOOOOOOOOOOOOOOOOOyuiiuuyiiyu OO+..+....OOOOOOOOOOOOOOOO",
"OOOOOOOOOOOOOOOOOOOOOOOOOO uuyyuiui y .%++++++%++OOOOOOOOOOOOOOO",
"OOOOOOOOOOOOOOOOOOOOOOOOOO ui puiiy  .%%*-:>>>:*%%OOOOOOOOOOOOOO",
"OOOOOOOOOOOOOOOOOOOOOOOOOOyii puiu   @&*<255552<*%+OOOOOOOOOOOOO",
"OOOOOOOOOOOOOOOOOOOOOOOOOOyiiiuuuy  .@*<490eqq84<*%..OOOOOOOOOOO",
"OOOOOOOOOOOOOOOOOOOOOOOOOOyuiiuyy  ..%*19erttre82*@..OOOOOOOOOOO",
"OOOOOOOOOOOOOOOOOOOOOOOOOOOyyyy  yy..%:17qrttre81:%..OOOOOOOOOOO",
"OOOOOOOOOOOOOOOOOOOOOOOOOOOOO   yiiy.@&<490qqq84<*...OOOOOOOOOOO",
"OOOOOOOOOOOOOOOOOOOOOOOOOOOOOyuy iiuy.&:<255542<:%OOOOOOOOOOOOOO",
"OOOOOOOOOOOOOOOOOOOOOOOOOOOOy uu uiiy.%%*::>>::**OOOOOOOOOOOOOOO",
"OOOOOOOOOOOOOOOOOOOOOOOOOOOyy uuyyiiuy.OOO%%@@@OOOOOOOOOOOOOOOOO",
"OOOOOOOOOOOOOOOOOOOOOOOOOOOyy yuy uuuyO.....OO.OOOOOOOOOOOOOOOOO",
"OOOOOOOOOOOOOOOOOOOOOOOOOOO   yyy iiuyOO........OOOOOOOOOOOOOOOO",
"OOOOOOOOOOOOOOOOOOOOOOOOOOOOO uuy iuu OOOOOOOOOOOOOOOOOOOOOOOOOO",
"OOOOOOOOOOOOOOOOOOOOOOOOOOOOOyuuyyuuy OOOOOOOOOOOOOOOOOOOOOOOOOO",
"OOOOOOOO........OOOOOOOOOOOOyuuuuy   OOOOOOOOOOOOOOOOOOOOOOOOOOO",
"OOOOOOOOOOXO...OOOOOOOOOOOOOyiiuuy yyOOOOOOOOOOOOOOOOOOOOOOOOOOO",
"OOOOOOOO++++%++%OOOOOOOOOOOyuiiuy yyyyOOOOOOOOOOOOOOOOOOOOOOOOOO",
"OOOOOO+%*;>>;>***OOOOOOOOOOyuiuu  yyyyOOOOOOOOOOOOOOOOOOOOOOOOOO",
"OOOXO+%:<355553<**OOOOOOOOOyuuuu  yyy OOOOOOOOOOOOOOOOOOOOOOOOOO",
"OOO..O*<590qq085<*O.OOOOOOyuiiuu yyy  OOOOOOOOOOOOOOOOOOOOOOOOOO",
"OOO..%*29qrttte81*%..OOOOyuiiiiu       OOOOOOOOOOOOOOOOOOOOOOOOO",
"OO...%*27qrttre81*@O.OOOO         OOOOOOOOOOOOOOOOOOOOOOOOOOOOOO",
"OO...@*<59qqq085<*O..OOOOOOOOOOOOOOOOOOOOOOOOOOOOOOOOOOOOOOOOOOO",
"OOOOO+%:<255543<**OOOOOOOOOOOOOOOOOOOOOOOOOOOOOOOOOOOOOOOOOOOOOO",
"OOOOOO%%*::>>::*%%OOOOOOOOOOOOOOOOOOOOOOOOOOOOOOOOOOOOOOOOOOOOOO",
"OOOOOOOOOO%O@O@OOOOOOOOOOOOOOOOOOOOOOOOOOOOOOOOOOOOOOOOOOOOOOOOO",
"OOOOOOOOO...OOOOOOOOOOOOOOOOOOOOOOOOOOOOOOOOOOOOOOOO....OOOOOOOO",
"OOOOOOOO....O...OOOOOOOOOOOOOOOOOOOOOOOOOOOOOOOOOOOOO.O.OOOOOOOO",
"OOOOOOOOOOOOOOOOOOOOOOOOOOOOOOOOOOOOOOOOOOOOOOOOOOOO@O@@OOOOOOOO",
"OOOOOOOOOOOOOOOOOOOOOOOOOOOOOOOOOOOOOOOOOOOOOOOOOO+***:**OOOOOOO",
"OOOOOOOOOOOOOOOOOOOOOOOOOOOOOOOOOOOOOOOOOOOOOOOOOO*=<22<**OOXOOO",
"OOOOOOOOOOOOOOOOOOOOOOOOOOOOOOOOOOOOOOOOOOOOOOO..@*<6885<*@..OOO",
"OOOOOOOOOOOOOOOOOOOOOOOOOOOOOOOOOOOOOOOOOOOOOOO..@:18qq82:@..OOO",
"OOOOOOOOOOOOOOOOOOOOOOOOOOOOOOOOOOOOOOOOOOOOOOO..@:18qq82*@..OOO",
"OOOOOOOOOOOOOOOOOOOOOOOOOOOOOOOOOOOOOOOOOOOOOOO..@*<6885<*@O.OOO",
"OOOOOOOOOOOOOOOOOOOOOOOOOOOOOOOOOOOOOOOOOOOOOOOO.O&:<22<:%OOOOOO",
"OOOOOOOOOOOOOOOOOOOOOOOOOOOOOOOOOOOOOOOOOOOOOOOOOO%&**:*%%OOOOOO",
"OOOOOOOOOOOOOOOOOOOOOOOOOOOOOOOOOOOOOOOOOOOOOOOOOO.O@@%@OOOOOOOO",
"OOOOOOOOOOOOOOOOOOOOOOOOOOOOOOOOOOOOOOOOOOOOOOOOOOOO....OOOOOOOO"
};
