/* XPM */
static char *exit[] = {
/* columns rows colors chars-per-pixel */
"64 64 24 1 ",
"  c #2E1C2C",
". c #46342B",
"X c #46342C",
"o c #47342C",
"O c #47352C",
"+ c #48362D",
"@ c #48372D",
"# c #49372D",
"$ c #4B392F",
"% c #4B3A2F",
"& c #4E3C31",
"* c #4F3E32",
"= c #503F33",
"- c #514033",
"; c #564536",
": c #564537",
"> c #594839",
", c #5A4939",
"< c #5E4D3C",
"1 c #635240",
"2 c #B64336",
"3 c #E86838",
"4 c #8D2C44",
"5 c #FF9148",
/* pixels */
"OOOOOOOOOOOOOOOOOOOOOOOOOOOOO OOOOO OOOOOOOOOOOOOOOOOOOOOOOOOOOO",
"OOOOOOOOOOOOOOOOOOOOOOOOOOOO 3 OOO 3 OOOOOOOOOOOOOOOOOOOOOOOOOOO",
"OOOOOOOOOOOOOOOOOOOOOOOOOOOO 22   22 OOOOOOOOOOOOOOOOOOOOOOOOOOO",
"OOOOOOOOOOOOOOOOOOOOOOOOOOOOO   5   OOOOOOOOOOOOOOOOOOOOOOOOOOOO",
"OOOOOOOOOOOOOOOOOOOOOOOOOOOO  5 5 5 OOOOOOOOOOOOOOOOOOOOOOOOOOOO",
"OOOOOOOOOOOOOOOOOOOOOOOOOOO 555 5 55 OOOOOOOOOOOOOOOOOOOOOOOOOOO",
"OOOOOOOOOOOOOOOOOOOOOOOOOO 5535 5 555 OOOOOOOOOOOOOOOOOOOOOOOOOO",
"OOOOOOOOOOOOOOOOOOOOOOOOO 55335 5 5355 OOOOOOOOOOOOOOOOOOOOOOOOO",
"OOOOOOOOOOOOOOOOOOOOOOO  553535 5 53355 OOOOOOOOOOOOOOOOOOOOOOOO",
"OOOOOOOOOOOOOOOOOOOOOO 33535535 5 535355 OOOOOOOOOOOOOOOOOOOOOOO",
"OOOOOOOOOOOOOOOOOOOOO 333355535 5 5355353 OOOOOOOOOOOOOOOOOOOOOO",
"OOOOOOOOOOOOOOOOOOO  3332555535 5 53555333 OOOOOOOOOOOOOOOOOOOOO",
"OOOOOOOOOOOOOOOOOO 333323555535 5 535555233 OOOOOOOOOOOOOOOOOOOO",
"OOOOOOOOO  OOOOOO 3333233555535 5 5355553233 OOOOOOOOOOOOOOOOOOO",
"OOOOOOOO 55 OOO  33333333555535 5 53555532333 OOOOOOO  OOOOOOOOO",
"OOOOOOOO 55 OO 2233333333555535 5 535555332333 OOOOO 55 OOOOOOOO",
"OOOOOOOO 23 O 22233333333555535 5 5355553333333 OOOO 55 OOOOOOOO",
"OOOOOOOO 33  22  33333333555535 3 53555533333333  OO 33 OOOOOOOO",
"OOOOOOOO 2 222 2233333333555555 3 5555553333333322 O 23 OOOOOOOO",
"OOOOOOOO  22  22233333333555555 3 55555533333333222  23 OOOOOOOO",
"OOOOOOOO 22  222233333333555555 5 55555533333333  222 3 OOOOOOOO",
"OOOOOOOO 22 2222233333333555555 5 5555553333333322 222  OOOOOOOO",
"OOOOOOOO 22 2222233333333555555 5 55555533333333222  22 OOOOOOOO",
"OOOOOOOOO 2 2222233333333555555 5 555555333333332222 22 OOOOOOOO",
"OOOOOOOOO 2 2222233333333555555 5 555555333333332222 2 OOOOOOOOO",
"OOOOOOOOO 2 2222233333333555555 3 555555333333332222 2 OOOOOOOOO",
"OOOOOOOOO 2 2222233333333555555 3 555555333333332222 2 OOOOOOOOO",
"OOOOOOOOO 2 2222233333333555535 3 555555333333332222 2 OOOOOOOOO",
"OOOOOOOOO 2 2222233333333555535 3 555555333333332222 2 OOOOOOOOO",
"OOOOOOOOO 222222233333333555535 3 5555553333333322222 2OOOOOOOOO",
"OOOOOOOOO 222222233333333555535 3 5555553333333322222 2OOOOOOOOO",
"OOOOOOOOO 222222233333333555535 3 555555333333332222222OOOOOOOOO",
"@oo.o..@. 222222233333333555535 3 555555333333332222222OOOOOOOOO",
"..@@@@ooo 222222233333333555535 3 535555333333332222222OOOOOOOOO",
"o@.o.o@.o 222222233333333555535 3 535555333333332222222OOOOOOOOO",
"o.@o.@o.@ 222222233333333555535 3 535555333333332222222OOOOOOOOO",
"@@.o.o@@.22222222333333335555 5 3 5 5555333333332222222OOOOOOOOO",
".o.@@o.oo2222222233333333555 3  3  3 555333333332222222OOOOOOOOO",
"o.o@@.oo@2222222233333333555 22 3 22 555333333332222222OOOOOOOOO",
"@@o.o.@..22222222333333335535 2   2 5355333333332222222OOOOOOOOO",
".oo@..o@.222222223333333353553  3  35535333333332222222OOOOOOOOO",
".@.@o@.@$22222222333333333553 35 53 3553333333332222222OOOOOOOOO",
"oo@oo.$$% 222222233333332553 2     2 355233333332222222OOOOOOOOO",
"@..o@.$-: 22222223333332353 2224 4222 35323333332222222OOOOOOOOO",
"o.o..@%:< 2 22222333332333 22444 44422 3332333332222222OOOOOOOOO",
"@@o..$&,1 2 2222233333332 22444   44422 2333333322222 2OOOOOOOOO",
".o...@-,1 2 222223333332 22444     44222 23333332222 22OOOOOOOOO",
".@...$%:< 2 22222333332 22444       44222 2333332222 2 OOOOOOOOO",
"oo@.o$$-: 2 2222233332 22444         44222 233332222 2 OOOOOOOOO",
"@.oo.@@$% 2 222223332 22444           44222 23332222 2 OOOOOOOOO",
"@o@..o.@$ 2 2222 332 22444             44222 233 222 2 OOOOOOOOO",
"..@o@oo@. 22 22 232 22444              444222 232 22 2 .OOOOOOOO",
"o@.o@.oo. 22 2 222 22444                444222 222 2 2 .OOOOOOOO",
"o.@o@o.@. 222 222 22444                  444222 222 22 @@OOOOOOO",
"@@....oo.  22222 22444                    444222 2222  &$@OOOOOO",
".oo@o@@. 55 222 22444       4444444        444222 22 55 =$@OoOOO",
"o..@.@@o 55 22 22444    44444444444444      442222 2 55 :&@..ooo",
"@@oooo.. 33 2 22444   4444444444444444444    442222  33 ,=@..ooo",
".o@.@.o@ 23  22444  4444444444444444444444   4442222 23 ,=@...o@",
".@o.@o.@ 23 22444 44444444444444444444444444  444222 33 :&@..@oo",
"oo@.@.oo 3 22444 44444444444444444444444444444 444422 3 -%@.o.o@",
"@.@oo.@. 2 2244           44444444444           44442 3 %@o@o@o.",
".@.oo@@..2 244444424444222 444444444 4444444444222242 2@@o.o@o@.",
"oo.@.@.@.@@.@.@.@o.@o.@o.@o.@o.@o.@o.@o.@o.@o.@o.@o.....@o@o..@o"
};
