/* XPM */
static char * wall_xpm[] = {
"64 64 33 1",
" 	c #47352C",
".	c #301628",
"+	c #FF3535",
"@	c #FF6B00",
"#	c #FF9800",
"$	c #ED182E",
"%	c #47342C",
"&	c #46342B",
"*	c #48362D",
"=	c #4B392F",
"-	c #4E3C31",
";	c #503F33",
">	c #524034",
",	c #564537",
"'	c #5A4939",
")	c #5E4D3C",
"!	c #645441",
"~	c #685743",
"{	c #695944",
"]	c #594839",
"^	c #71604A",
"/	c #48372D",
"(	c #514033",
"_	c #635240",
":	c #6F5E48",
"<	c #635340",
"[	c #5D4C3C",
"}	c #5A4A3A",
"|	c #A42843",
"1	c #FF6831",
"2	c #D24132",
"3	c #5E4E3D",
"4	c #4B3A2F",
"                                                                ",
"                         .....+@@+.....                         ",
"                       ..+@@@@@@@@@@@@+..                       ",
"                      .+@@@@###@@###@@@@+.                      ",
"                     .+@@@@##########@@@@+.                     ",
"                   ..+@@@@@##########@@@@@+..                   ",
"                 ..+++@@@@@@########@@@@@@+++..                 ",
"                .++++@+@@+@##########@+@@++@+@+.                ",
"                .+@@@++++@############@+++++@++.                ",
"                ...+++++@@@##@####@##@@@+++++...                ",
"               .@@@@@+++@@@@@@@##@@@@@@@+++@@@@@.               ",
"              .@@@@@@@+++@@@+@@@@@@+@@@+++@@@@@@@.              ",
"               .@@@@@+++++++++@@@@+++++++++@@@@@.               ",
"               .@@@#+++++++++@@@@@@+++++++++#@@@.               ",
"              .@@##@+@+++@+++@@@@@@+++@+++@+@##@@..             ",
"             .+@@@@@++@@@+@+++@@@@+++@+@++@+@@@@@++.            ",
"            .+@@@@@@@@+++@@@++++++++@@@+@@++@#@@@@+.            ",
"           .+@@@@@#@@@@@@@@@@++++++@@@@@++@@@#@@@@@+.           ",
"          .++@####@+@@@@@@@@+@++++@+@@@@@@@@+@####@++.          ",
"          .+++@@@@++@@@@@@@@+@@@@@@+@@@#@@@@++@@@@+++.          ",
"          .++++++++@@@@@#@@@@++++++@@@@#@@@@@++++++++.          ",
"          .++++++++@@@@#@+@@@@@@@@@@@@+@#@@@@+++@++++.          ",
"          .++++@+++@###@++@@@@#@@#@@@@++@###@++$+@+++.          ",
"          .+@@@+$+++@@@++@#@@#@++@#@@#@++@@@++$$$+@@+.          ",
"         .$++++$$$+++++++@###@++++@###@+++++++$$$$+++$.         ",
"         .$$$$$$$$++++++++@@@++++++@@@+++++@@++$$$$$$$.         ",
"        .$$$$$$$$++++++@++++++++++++++++++$++@+$$$$$$$$.        ",
"        .$$$$$$$$+@++@@+$+++@+++++++++++++$$$++$$$+$$$$.        ",
"        .$$$$+$$$$+@@++$$+@@+$+@+@++$+@++++$$$+$$$$+$$$.        ",
"        .$$$+$+$$$+++$$$$+++$$+@+@+$$++@+@+$$$$$$$+$+$$.        ",
"         .++$+$$$$$$$$$$$$$$$$+@+@+$$$$+@@++$$$$$$$+$+.         ",
"        .+$$+$$+$$$$$$$$$$$$$$++@++$$$$$+++$$$+$$$$++$+.        ",
"        .++++$+$+$$$$$$$$$$$$$$+++$$$$$$$$$$$+$+++$++++.        ",
"        .+@++$$+++$$$$$$+$+$$$$$$$$$$+$+$$$$$$+$$$$++@+.        ",
"        .+@@@+++++$$$$$+$++$+$$$$$$+$+$+$$$$$$+++++@@@+.        ",
"         .++++++++$$$$+$+++$+$$+$+$+$++$++$$$$++++++++.         ",
"          ...$++++$$$$+$+++$$++$+$+$$+++$$+$+$++++$$..          ",
"           .$$+++++$++$+++++$$$++$$$++++++$+$+++++$$$.          ",
"          .$$$+++++$$$++++++++++++++++++++$$$+++++$$$$.         ",
"       %&&.$$$+@+++@+++++++++++++++++++++++++@++@+$$$$.         ",
"          .$$$+@@@@+$++++++@@+@++@++@++++++$++@@@+$$$$.         ",
"        ***.$$$++++$$+@++@@+++@++@+++@@++@+$$++++$$$$.          ",
"      *=-;>.$$$$$$$$$+@@@++$$+@++@+$$++@@@+$$$$$$$$$$.          ",
"   %  --,')).$$$$$$$$$+++$$$$++@@++$$$$+++$$$$$$$$$$.           ",
"   &  -,)!~{.$$$$$$$$$$$$$$$$$++++$$$$$$$$$$$$$$$$$$.           ",
"   &&=-]!{^^^.$$$$$$$$$$$$$$$$$$$$$$$$$$$$$$$$$$$$$.            ",
"  &&&/(]_{:^^:..$$$$$$$$$$$$$$$$$$$$$$$$$$$$$$$$$..             ",
"  &&&/-,)!~{{{<.$$$$$$$$$$$$$$$$$$$$$$$$$$$$$$$$$.              ",
"     ==(,')))[},.$$$$$$$$$$$$$$$$$$$$$$$$$$$$$$$.               ",
"       =-((>>((-=..$$$..$$$$$$$$$$$$$$$$$..$$$..                ",
"         /= / /    ...  .$$$$$$...$$$$$$.  ...                  ",
"         &&&            .......|11......            &&&&        ",
"        &&&& &&&        .112|12|2112|21..            &&&        ",
"                       .1112|12|2112|21.|.          ////        ",
"                      . 112|122|2122|21.||..      ==--(--       ",
"                    ..11 2.112|2212|211. |||.     =(,'',--      ",
"                   .1122..1122|2112|2 11. |    &&/-,3<<3,-/&&   ",
"                       .1 12 2|1112| 11111     &&/-'<{{<'(/&&   ",
"                      .122 2. 22 11  2.2 22.   &&=('<{{<'-=&&   ",
"                      .2      2 2111           &&/-,3<<3,-/&&   ",
"                                  2 11          &/4(,'',(=      ",
"                                                & =4----==      ",
"                                                  & /=//        ",
"                                                    &&&&        "};
